<?xml version="1.0" encoding="UTF-8" standalone="no"?>
<!DOCTYPE svg PUBLIC "-//W3C//DTD SVG 1.1//EN"
 "http://www.w3.org/Graphics/SVG/1.1/DTD/svg11.dtd">
<!-- Generated by graphviz version 2.43.0 (0)
 -->
<!-- Title: %3 Pages: 1 -->
<svg width="2358pt" height="917pt"
 viewBox="0.00 0.00 2358.00 916.78" xmlns="http://www.w3.org/2000/svg" xmlns:xlink="http://www.w3.org/1999/xlink">
<g id="graph0" class="graph" transform="scale(1 1) rotate(0) translate(4 912.78)">
<title>%3</title>
<polygon fill="white" stroke="transparent" points="-4,4 -4,-912.78 2354,-912.78 2354,4 -4,4"/>
<!-- n8 -->
<g id="node1" class="node">
<title>n8</title>
<polygon fill="none" stroke="black" points="1304.5,-847.89 1304.5,-900.89 1677.5,-900.89 1677.5,-847.89 1304.5,-847.89"/>
<text text-anchor="middle" x="1446.5" y="-885.69" font-family="Times,serif" font-size="14.00">redis&#45;cluster&#45;compose&#45;redis_node_1&#45;1</text>
<text text-anchor="middle" x="1446.5" y="-870.69" font-family="Times,serif" font-size="14.00">image: redis:7&#45;alpine</text>
<text text-anchor="middle" x="1446.5" y="-855.69" font-family="Times,serif" font-size="14.00">net: redis&#45;cluster&#45;compose_default</text>
<polyline fill="none" stroke="black" points="1588.5,-847.89 1588.5,-900.89 "/>
<text text-anchor="middle" x="1633" y="-884.19" font-family="Times,serif" font-size="14.00">6379/tcp</text>
<polyline fill="none" stroke="black" points="1588.5,-874.89 1677.5,-874.89 "/>
<text text-anchor="middle" x="1633" y="-857.69" font-family="Times,serif" font-size="14.00">16379/tcp</text>
</g>
<!-- n2 -->
<g id="node2" class="node">
<title>n2</title>
<polygon fill="none" stroke="black" points="706.5,-742.89 706.5,-795.89 1079.5,-795.89 1079.5,-742.89 706.5,-742.89"/>
<text text-anchor="middle" x="848.5" y="-780.69" font-family="Times,serif" font-size="14.00">redis&#45;cluster&#45;compose&#45;redis_node_2&#45;1</text>
<text text-anchor="middle" x="848.5" y="-765.69" font-family="Times,serif" font-size="14.00">image: redis:7&#45;alpine</text>
<text text-anchor="middle" x="848.5" y="-750.69" font-family="Times,serif" font-size="14.00">net: redis&#45;cluster&#45;compose_default</text>
<polyline fill="none" stroke="black" points="990.5,-742.89 990.5,-795.89 "/>
<text text-anchor="middle" x="1035" y="-779.19" font-family="Times,serif" font-size="14.00">6379/tcp</text>
<polyline fill="none" stroke="black" points="990.5,-769.89 1079.5,-769.89 "/>
<text text-anchor="middle" x="1035" y="-752.69" font-family="Times,serif" font-size="14.00">16379/tcp</text>
</g>
<!-- n8&#45;&gt;n2 -->
<g id="edge5" class="edge">
<title>n8:out&#45;&gt;n2:16379</title>
<path fill="none" stroke="#e7298a" d="M1303,-874.39C1187.64,-874.39 1190.44,-774.05 1079.5,-742.39 1073.11,-740.57 1055.22,-736.28 1044.17,-736.66"/>
<polygon fill="#e7298a" stroke="#e7298a" points="1042.28,-733.69 1035,-741.39 1045.49,-739.91 1042.28,-733.69"/>
<text text-anchor="middle" x="1234.5" y="-818.19" font-family="Times,serif" font-size="14.00" fill="#e7298a">16379/tcp</text>
</g>
<!-- n1 -->
<g id="node3" class="node">
<title>n1</title>
<polygon fill="none" stroke="black" points="273.5,-7.89 273.5,-60.89 646.5,-60.89 646.5,-7.89 273.5,-7.89"/>
<text text-anchor="middle" x="415.5" y="-45.69" font-family="Times,serif" font-size="14.00">redis&#45;cluster&#45;compose&#45;redis_node_3&#45;1</text>
<text text-anchor="middle" x="415.5" y="-30.69" font-family="Times,serif" font-size="14.00">image: redis:7&#45;alpine</text>
<text text-anchor="middle" x="415.5" y="-15.69" font-family="Times,serif" font-size="14.00">net: redis&#45;cluster&#45;compose_default</text>
<polyline fill="none" stroke="black" points="557.5,-7.89 557.5,-60.89 "/>
<text text-anchor="middle" x="602" y="-44.19" font-family="Times,serif" font-size="14.00">6379/tcp</text>
<polyline fill="none" stroke="black" points="557.5,-34.89 646.5,-34.89 "/>
<text text-anchor="middle" x="602" y="-17.69" font-family="Times,serif" font-size="14.00">16379/tcp</text>
</g>
<!-- n8&#45;&gt;n1 -->
<g id="edge6" class="edge">
<title>n8:out&#45;&gt;n1:16379</title>
<path fill="none" stroke="#e7298a" d="M1303,-874.39C1235.09,-874.39 85,-838.3 85,-770.39 85,-770.39 85,-770.39 85,-610.89 85,-360.39 142.19,-255.19 348,-112.39 384.72,-86.91 399.3,-88.76 443,-79.39 465.19,-74.63 631.17,-78.13 646.5,-61.39 662.71,-43.69 663.28,-24.55 646.5,-7.39 641.69,-2.47 622.06,0.87 610.54,-0.87"/>
<polygon fill="#e7298a" stroke="#e7298a" points="608.5,1.98 602,-6.39 612.3,-3.9 608.5,1.98"/>
<text text-anchor="middle" x="137.5" y="-450.69" font-family="Times,serif" font-size="14.00" fill="#e7298a">16379/tcp</text>
</g>
<!-- n3 -->
<g id="node4" class="node">
<title>n3</title>
<polygon fill="none" stroke="black" points="1407.5,-112.89 1407.5,-165.89 1780.5,-165.89 1780.5,-112.89 1407.5,-112.89"/>
<text text-anchor="middle" x="1549.5" y="-150.69" font-family="Times,serif" font-size="14.00">redis&#45;cluster&#45;compose&#45;redis_node_4&#45;1</text>
<text text-anchor="middle" x="1549.5" y="-135.69" font-family="Times,serif" font-size="14.00">image: redis:7&#45;alpine</text>
<text text-anchor="middle" x="1549.5" y="-120.69" font-family="Times,serif" font-size="14.00">net: redis&#45;cluster&#45;compose_default</text>
<polyline fill="none" stroke="black" points="1691.5,-112.89 1691.5,-165.89 "/>
<text text-anchor="middle" x="1736" y="-149.19" font-family="Times,serif" font-size="14.00">6379/tcp</text>
<polyline fill="none" stroke="black" points="1691.5,-139.89 1780.5,-139.89 "/>
<text text-anchor="middle" x="1736" y="-122.69" font-family="Times,serif" font-size="14.00">16379/tcp</text>
</g>
<!-- n8&#45;&gt;n3 -->
<g id="edge7" class="edge">
<title>n8:out&#45;&gt;n3:16379</title>
<path fill="none" stroke="#e7298a" d="M1446,-847.39C1446,-821.2 1655.21,-833.91 1681,-829.39 1735.06,-819.92 1749.18,-817.12 1800,-796.39 1950.86,-734.87 2007.75,-736.51 2121,-619.39 2162.59,-576.38 2140.89,-542.86 2182,-499.39 2192.95,-487.82 2202.95,-493.76 2213,-481.39 2236.18,-452.87 2239,-439.64 2239,-402.89 2239,-402.89 2239,-402.89 2239,-243.39 2239,-142.31 2009.69,-126.85 1792.03,-126.4"/>
<polygon fill="#e7298a" stroke="#e7298a" points="1792,-122.9 1782,-126.39 1792,-129.9 1792,-122.9"/>
<text text-anchor="middle" x="2218.5" y="-503.19" font-family="Times,serif" font-size="14.00" fill="#e7298a">16379/tcp</text>
</g>
<!-- n4 -->
<g id="node5" class="node">
<title>n4</title>
<polygon fill="none" stroke="black" points="704.5,-217.89 704.5,-270.89 1077.5,-270.89 1077.5,-217.89 704.5,-217.89"/>
<text text-anchor="middle" x="846.5" y="-255.69" font-family="Times,serif" font-size="14.00">redis&#45;cluster&#45;compose&#45;redis_node_5&#45;1</text>
<text text-anchor="middle" x="846.5" y="-240.69" font-family="Times,serif" font-size="14.00">image: redis:7&#45;alpine</text>
<text text-anchor="middle" x="846.5" y="-225.69" font-family="Times,serif" font-size="14.00">net: redis&#45;cluster&#45;compose_default</text>
<polyline fill="none" stroke="black" points="988.5,-217.89 988.5,-270.89 "/>
<text text-anchor="middle" x="1033" y="-254.19" font-family="Times,serif" font-size="14.00">6379/tcp</text>
<polyline fill="none" stroke="black" points="988.5,-244.89 1077.5,-244.89 "/>
<text text-anchor="middle" x="1033" y="-227.69" font-family="Times,serif" font-size="14.00">16379/tcp</text>
</g>
<!-- n8&#45;&gt;n4 -->
<g id="edge8" class="edge">
<title>n8:out&#45;&gt;n4:16379</title>
<path fill="none" stroke="#e7298a" d="M1303,-874.39C1243.66,-874.39 240,-829.73 240,-770.39 240,-770.39 240,-770.39 240,-610.89 240,-484.59 349.5,-493.69 457,-427.39 558.79,-364.61 573.48,-323.86 688,-289.39 729.49,-276.9 1047.58,-302.72 1077.5,-271.39 1081.64,-267.05 1081.69,-221.68 1077.5,-217.39 1072.69,-212.47 1053.06,-209.13 1041.54,-210.87"/>
<polygon fill="#e7298a" stroke="#e7298a" points="1039.5,-208.02 1033,-216.39 1043.3,-213.9 1039.5,-208.02"/>
<text text-anchor="middle" x="299.5" y="-555.69" font-family="Times,serif" font-size="14.00" fill="#e7298a">16379/tcp</text>
</g>
<!-- n5 -->
<g id="node6" class="node">
<title>n5</title>
<polygon fill="none" stroke="black" points="1332.5,-322.89 1332.5,-375.89 1705.5,-375.89 1705.5,-322.89 1332.5,-322.89"/>
<text text-anchor="middle" x="1474.5" y="-360.69" font-family="Times,serif" font-size="14.00">redis&#45;cluster&#45;compose&#45;redis_node_6&#45;1</text>
<text text-anchor="middle" x="1474.5" y="-345.69" font-family="Times,serif" font-size="14.00">image: redis:7&#45;alpine</text>
<text text-anchor="middle" x="1474.5" y="-330.69" font-family="Times,serif" font-size="14.00">net: redis&#45;cluster&#45;compose_default</text>
<polyline fill="none" stroke="black" points="1616.5,-322.89 1616.5,-375.89 "/>
<text text-anchor="middle" x="1661" y="-359.19" font-family="Times,serif" font-size="14.00">6379/tcp</text>
<polyline fill="none" stroke="black" points="1616.5,-349.89 1705.5,-349.89 "/>
<text text-anchor="middle" x="1661" y="-332.69" font-family="Times,serif" font-size="14.00">16379/tcp</text>
</g>
<!-- n8&#45;&gt;n5 -->
<g id="edge1" class="edge">
<title>n8:out&#45;&gt;n5:16379</title>
<path fill="none" stroke="#e7298a" d="M1446,-847.39C1446,-826.63 1611.62,-833.34 1632,-829.39 1682.94,-819.51 1698.16,-820.71 1744,-796.39 1798.67,-767.39 1932.58,-675.35 1959,-619.39 1978.22,-578.67 2090.1,-574.39 1860,-394.39 1827.87,-369.26 1807.86,-391.58 1770,-376.39 1742.71,-365.44 1740.36,-342.46 1717.05,-337.39"/>
<polygon fill="#e7298a" stroke="#e7298a" points="1717.3,-333.9 1707,-336.39 1716.6,-340.87 1717.3,-333.9"/>
<text text-anchor="middle" x="2006.5" y="-608.19" font-family="Times,serif" font-size="14.00" fill="#e7298a">16379/tcp</text>
</g>
<!-- n6 -->
<g id="node7" class="node">
<title>n6</title>
<polygon fill="none" stroke="black" points="945.5,-427.89 945.5,-480.89 1318.5,-480.89 1318.5,-427.89 945.5,-427.89"/>
<text text-anchor="middle" x="1087.5" y="-465.69" font-family="Times,serif" font-size="14.00">redis&#45;cluster&#45;compose&#45;redis_node_7&#45;1</text>
<text text-anchor="middle" x="1087.5" y="-450.69" font-family="Times,serif" font-size="14.00">image: redis:7&#45;alpine</text>
<text text-anchor="middle" x="1087.5" y="-435.69" font-family="Times,serif" font-size="14.00">net: redis&#45;cluster&#45;compose_default</text>
<polyline fill="none" stroke="black" points="1229.5,-427.89 1229.5,-480.89 "/>
<text text-anchor="middle" x="1274" y="-464.19" font-family="Times,serif" font-size="14.00">6379/tcp</text>
<polyline fill="none" stroke="black" points="1229.5,-454.89 1318.5,-454.89 "/>
<text text-anchor="middle" x="1274" y="-437.69" font-family="Times,serif" font-size="14.00">16379/tcp</text>
</g>
<!-- n8&#45;&gt;n6 -->
<g id="edge2" class="edge">
<title>n8:out&#45;&gt;n6:16379</title>
<path fill="none" stroke="#e7298a" d="M1446,-847.39C1446,-810.29 1584.15,-853.91 1612,-829.39 1677.86,-771.41 1600.94,-704.06 1658,-637.39 1696.75,-592.12 1748.83,-635.9 1782,-586.39 1795.36,-566.45 1798.36,-549.95 1782,-532.39 1762.71,-511.69 1556.05,-518.08 1528,-514.39 1489.63,-509.35 1390.82,-500.2 1357,-481.39 1339.47,-471.64 1342.21,-450.61 1329.91,-443.67"/>
<polygon fill="#e7298a" stroke="#e7298a" points="1330.53,-440.22 1320,-441.39 1328.96,-447.04 1330.53,-440.22"/>
<text text-anchor="middle" x="1694.5" y="-660.69" font-family="Times,serif" font-size="14.00" fill="#e7298a">16379/tcp</text>
</g>
<!-- n7 -->
<g id="node8" class="node">
<title>n7</title>
<polygon fill="none" stroke="black" points="811.5,-532.89 811.5,-585.89 1184.5,-585.89 1184.5,-532.89 811.5,-532.89"/>
<text text-anchor="middle" x="953.5" y="-570.69" font-family="Times,serif" font-size="14.00">redis&#45;cluster&#45;compose&#45;redis_node_8&#45;1</text>
<text text-anchor="middle" x="953.5" y="-555.69" font-family="Times,serif" font-size="14.00">image: redis:7&#45;alpine</text>
<text text-anchor="middle" x="953.5" y="-540.69" font-family="Times,serif" font-size="14.00">net: redis&#45;cluster&#45;compose_default</text>
<polyline fill="none" stroke="black" points="1095.5,-532.89 1095.5,-585.89 "/>
<text text-anchor="middle" x="1140" y="-569.19" font-family="Times,serif" font-size="14.00">6379/tcp</text>
<polyline fill="none" stroke="black" points="1095.5,-559.89 1184.5,-559.89 "/>
<text text-anchor="middle" x="1140" y="-542.69" font-family="Times,serif" font-size="14.00">16379/tcp</text>
</g>
<!-- n8&#45;&gt;n7 -->
<g id="edge3" class="edge">
<title>n8:out&#45;&gt;n7:16379</title>
<path fill="none" stroke="#e7298a" d="M1303,-874.39C1138.85,-874.39 488.94,-843.92 583,-709.39 668.4,-587.26 759.81,-648.33 906,-619.39 932.54,-614.14 938.31,-608.84 965,-604.39 989.14,-600.36 1167.92,-604.39 1184.5,-586.39 1200.76,-568.74 1201.28,-549.55 1184.5,-532.39 1179.69,-527.47 1160.06,-524.13 1148.54,-525.87"/>
<polygon fill="#e7298a" stroke="#e7298a" points="1146.5,-523.02 1140,-531.39 1150.3,-528.9 1146.5,-523.02"/>
<text text-anchor="middle" x="619.5" y="-713.19" font-family="Times,serif" font-size="14.00" fill="#e7298a">16379/tcp</text>
</g>
<!-- n9 -->
<g id="node9" class="node">
<title>n9</title>
<polygon fill="none" stroke="black" points="1120.5,-637.89 1120.5,-690.89 1493.5,-690.89 1493.5,-637.89 1120.5,-637.89"/>
<text text-anchor="middle" x="1262.5" y="-675.69" font-family="Times,serif" font-size="14.00">redis&#45;cluster&#45;compose&#45;redis_node_9&#45;1</text>
<text text-anchor="middle" x="1262.5" y="-660.69" font-family="Times,serif" font-size="14.00">image: redis:7&#45;alpine</text>
<text text-anchor="middle" x="1262.5" y="-645.69" font-family="Times,serif" font-size="14.00">net: redis&#45;cluster&#45;compose_default</text>
<polyline fill="none" stroke="black" points="1404.5,-637.89 1404.5,-690.89 "/>
<text text-anchor="middle" x="1449" y="-674.19" font-family="Times,serif" font-size="14.00">6379/tcp</text>
<polyline fill="none" stroke="black" points="1404.5,-664.89 1493.5,-664.89 "/>
<text text-anchor="middle" x="1449" y="-647.69" font-family="Times,serif" font-size="14.00">16379/tcp</text>
</g>
<!-- n8&#45;&gt;n9 -->
<g id="edge4" class="edge">
<title>n8:out&#45;&gt;n9:16379</title>
<path fill="none" stroke="#e7298a" d="M1446,-847.39C1446,-761.46 1573.12,-660.49 1505.34,-651.97"/>
<polygon fill="#e7298a" stroke="#e7298a" points="1505.18,-648.45 1495,-651.39 1504.79,-655.44 1505.18,-648.45"/>
<text text-anchor="middle" x="1523.5" y="-765.69" font-family="Times,serif" font-size="14.00" fill="#e7298a">16379/tcp</text>
</g>
<!-- n2&#45;&gt;n8 -->
<g id="edge12" class="edge">
<title>n2:out&#45;&gt;n8:16379</title>
<path fill="none" stroke="#e7298a" d="M848,-796.39C848,-837.53 1543.7,-807.68 1625.23,-840.5"/>
<polygon fill="#e7298a" stroke="#e7298a" points="1623.2,-843.37 1633,-847.39 1627.84,-838.14 1623.2,-843.37"/>
<text text-anchor="middle" x="1571.5" y="-818.19" font-family="Times,serif" font-size="14.00" fill="#e7298a">16379/tcp</text>
</g>
<!-- n2&#45;&gt;n1 -->
<g id="edge13" class="edge">
<title>n2:out&#45;&gt;n1:16379</title>
<path fill="none" stroke="#e7298a" d="M705,-769.39C673.72,-769.39 669.65,-752.36 640,-742.39 609.96,-732.29 598.72,-739.76 571,-724.39 481.92,-674.98 278.28,-502.95 238,-409.39 192.45,-303.6 353.51,-159.01 413,-112.39 428.14,-100.53 474.39,-84.22 493,-79.39 526.24,-70.76 623.67,-87.05 646.5,-61.39 662.45,-43.46 663.28,-24.55 646.5,-7.39 641.69,-2.47 622.06,0.87 610.54,-0.87"/>
<polygon fill="#e7298a" stroke="#e7298a" points="608.5,1.98 602,-6.39 612.3,-3.9 608.5,1.98"/>
<text text-anchor="middle" x="274.5" y="-398.19" font-family="Times,serif" font-size="14.00" fill="#e7298a">16379/tcp</text>
</g>
<!-- n2&#45;&gt;n3 -->
<g id="edge14" class="edge">
<title>n2:out&#45;&gt;n3:16379</title>
<path fill="none" stroke="#e7298a" d="M848,-742.39C848,-729.02 1315.68,-725.57 1329,-724.39 1434.5,-715.06 1467.97,-733.83 1565,-691.39 1599.72,-676.2 1596.63,-653.36 1631,-637.39 1743.34,-585.2 1787.92,-626.85 1905,-586.39 2029.59,-543.34 2138,-534.7 2138,-402.89 2138,-402.89 2138,-402.89 2138,-243.39 2138,-163.21 1885.14,-128.96 1792.03,-126.53"/>
<polygon fill="#e7298a" stroke="#e7298a" points="1792.05,-123.03 1782,-126.39 1791.95,-130.03 1792.05,-123.03"/>
<text text-anchor="middle" x="2172.5" y="-450.69" font-family="Times,serif" font-size="14.00" fill="#e7298a">16379/tcp</text>
</g>
<!-- n2&#45;&gt;n4 -->
<g id="edge15" class="edge">
<title>n2:out&#45;&gt;n4:16379</title>
<path fill="none" stroke="#e7298a" d="M705,-769.39C701.28,-769.39 581.14,-727.43 579,-724.39 564.13,-703.29 576.28,-525.18 587,-499.39 611.05,-441.56 631.43,-432.68 681,-394.39 694.84,-383.7 702.81,-387.88 716,-376.39 738.13,-357.12 732.14,-341.97 754,-322.39 776.67,-302.09 784.8,-297.96 814,-289.39 842.16,-281.12 1057.47,-292.84 1077.5,-271.39 1081.6,-267.01 1081.69,-221.68 1077.5,-217.39 1072.69,-212.47 1053.06,-209.13 1041.54,-210.87"/>
<polygon fill="#e7298a" stroke="#e7298a" points="1039.5,-208.02 1033,-216.39 1043.3,-213.9 1039.5,-208.02"/>
<text text-anchor="middle" x="623.5" y="-503.19" font-family="Times,serif" font-size="14.00" fill="#e7298a">16379/tcp</text>
</g>
<!-- n2&#45;&gt;n5 -->
<g id="edge16" class="edge">
<title>n2:out&#45;&gt;n5:16379</title>
<path fill="none" stroke="#e7298a" d="M848,-742.39C848,-741.22 1519.92,-691.84 1521,-691.39 1523.75,-690.24 1842.77,-412.1 1844,-409.39 1868.14,-356.28 1778.19,-385.79 1758,-376.39 1735.56,-365.94 1735.3,-343.91 1717.39,-337.92"/>
<polygon fill="#e7298a" stroke="#e7298a" points="1717.4,-334.39 1707,-336.39 1716.38,-341.31 1717.4,-334.39"/>
<text text-anchor="middle" x="1738.5" y="-555.69" font-family="Times,serif" font-size="14.00" fill="#e7298a">16379/tcp</text>
</g>
<!-- n2&#45;&gt;n6 -->
<g id="edge9" class="edge">
<title>n2:out&#45;&gt;n6:16379</title>
<path fill="none" stroke="#e7298a" d="M848,-742.39C848,-724.14 1490.61,-704.79 1503,-691.39 1519.3,-673.77 1511.07,-659.99 1503,-637.39 1471.08,-547.96 1424.7,-547.98 1357,-481.39 1342.7,-467.33 1343.32,-449.12 1330.2,-443.28"/>
<polygon fill="#e7298a" stroke="#e7298a" points="1330.47,-439.77 1320,-441.39 1329.19,-446.66 1330.47,-439.77"/>
<text text-anchor="middle" x="1531.5" y="-608.19" font-family="Times,serif" font-size="14.00" fill="#e7298a">16379/tcp</text>
</g>
<!-- n2&#45;&gt;n7 -->
<g id="edge10" class="edge">
<title>n2:out&#45;&gt;n7:16379</title>
<path fill="none" stroke="#e7298a" d="M705,-769.39C692.99,-769.39 699.05,-752.18 706,-742.39 718.71,-724.49 733.92,-736.85 752,-724.39 795.01,-694.76 784.76,-661.67 831,-637.39 866.13,-618.94 1158.61,-616.47 1184.5,-586.39 1200.16,-568.2 1201.28,-549.55 1184.5,-532.39 1179.69,-527.47 1160.06,-524.13 1148.54,-525.87"/>
<polygon fill="#e7298a" stroke="#e7298a" points="1146.5,-523.02 1140,-531.39 1150.3,-528.9 1146.5,-523.02"/>
<text text-anchor="middle" x="867.5" y="-660.69" font-family="Times,serif" font-size="14.00" fill="#e7298a">16379/tcp</text>
</g>
<!-- n2&#45;&gt;n9 -->
<g id="edge11" class="edge">
<title>n2:out&#45;&gt;n9:16379</title>
<path fill="none" stroke="#e7298a" d="M848,-742.39C848,-705.97 887.48,-717.45 923,-709.39 953.92,-702.38 1471.43,-714.16 1493.5,-691.39 1510.2,-674.15 1510.28,-654.55 1493.5,-637.39 1488.69,-632.47 1469.06,-629.13 1457.54,-630.87"/>
<polygon fill="#e7298a" stroke="#e7298a" points="1455.5,-628.02 1449,-636.39 1459.3,-633.9 1455.5,-628.02"/>
<text text-anchor="middle" x="959.5" y="-713.19" font-family="Times,serif" font-size="14.00" fill="#e7298a">16379/tcp</text>
</g>
<!-- n1&#45;&gt;n8 -->
<g id="edge20" class="edge">
<title>n1:out&#45;&gt;n8:16379</title>
<path fill="none" stroke="#e7298a" d="M272,-34.39C207.29,-34.39 0,-73.68 0,-138.39 0,-402.89 0,-402.89 0,-402.89 0,-665.52 149.08,-791.78 409,-829.39 424.94,-831.7 1508.99,-830.53 1623.28,-844.85"/>
<polygon fill="#e7298a" stroke="#e7298a" points="1622.44,-848.25 1633,-847.39 1624.21,-841.48 1622.44,-848.25"/>
<text text-anchor="middle" x="41.5" y="-450.69" font-family="Times,serif" font-size="14.00" fill="#e7298a">16379/tcp</text>
</g>
<!-- n1&#45;&gt;n2 -->
<g id="edge21" class="edge">
<title>n1:out&#45;&gt;n2:16379</title>
<path fill="none" stroke="#e7298a" d="M272,-34.39C198.01,-34.39 142,-64.4 142,-138.39 142,-350.39 142,-350.39 142,-350.39 142,-377.45 139.16,-389.05 157,-409.39 181.3,-437.1 436.08,-509.55 465,-532.39 532.83,-585.97 511.47,-635.02 577,-691.39 601.86,-712.78 611.26,-716.13 643,-724.39 662.16,-729.38 969.85,-722.17 1026.18,-737.14"/>
<polygon fill="#e7298a" stroke="#e7298a" points="1024.62,-740.28 1035,-742.39 1028.2,-734.27 1024.62,-740.28"/>
<text text-anchor="middle" x="193.5" y="-398.19" font-family="Times,serif" font-size="14.00" fill="#e7298a">16379/tcp</text>
</g>
<!-- n1&#45;&gt;n3 -->
<g id="edge22" class="edge">
<title>n1:out&#45;&gt;n3:16379</title>
<path fill="none" stroke="#e7298a" d="M415,-61.39C415,-71.44 1127.96,-94.01 1138,-94.39 1153.34,-94.97 1650.71,-95.66 1726.39,-108.86"/>
<polygon fill="#e7298a" stroke="#e7298a" points="1725.41,-112.23 1736,-112.39 1727.82,-105.66 1725.41,-112.23"/>
<text text-anchor="middle" x="1174.5" y="-83.19" font-family="Times,serif" font-size="14.00" fill="#e7298a">16379/tcp</text>
</g>
<!-- n1&#45;&gt;n4 -->
<g id="edge23" class="edge">
<title>n1:out&#45;&gt;n4:16379</title>
<path fill="none" stroke="#e7298a" d="M415,-61.39C415,-83.75 771.15,-194.68 793,-199.39 816.28,-204.41 988.46,-193.56 1025.85,-210.01"/>
<polygon fill="#e7298a" stroke="#e7298a" points="1023.53,-212.64 1033,-217.39 1028.55,-207.77 1023.53,-212.64"/>
<text text-anchor="middle" x="716.5" y="-135.69" font-family="Times,serif" font-size="14.00" fill="#e7298a">16379/tcp</text>
</g>
<!-- n1&#45;&gt;n5 -->
<g id="edge24" class="edge">
<title>n1:out&#45;&gt;n5:16379</title>
<path fill="none" stroke="#e7298a" d="M415,-61.39C415,-70.08 717.36,-93.53 726,-94.39 811.28,-102.91 835.27,-90.01 918,-112.39 991.32,-132.22 1008.31,-144.59 1073,-184.39 1082.16,-190.03 1082.29,-194.76 1092,-199.39 1282.81,-290.48 1348.62,-263.18 1556,-304.39 1575.59,-308.28 1636.87,-301.57 1655.55,-313.59"/>
<polygon fill="#e7298a" stroke="#e7298a" points="1652.76,-315.74 1661,-322.39 1658.7,-312.05 1652.76,-315.74"/>
<text text-anchor="middle" x="1128.5" y="-188.19" font-family="Times,serif" font-size="14.00" fill="#e7298a">16379/tcp</text>
</g>
<!-- n1&#45;&gt;n6 -->
<g id="edge17" class="edge">
<title>n1:out&#45;&gt;n6:16379</title>
<path fill="none" stroke="#e7298a" d="M415,-61.39C415,-113.37 480.84,-235.05 518,-271.39 524.52,-277.77 807.13,-407.25 816,-409.39 838.68,-414.86 1204.11,-404.05 1265.33,-421.76"/>
<polygon fill="#e7298a" stroke="#e7298a" points="1263.71,-424.88 1274,-427.39 1267.52,-419.01 1263.71,-424.88"/>
<text text-anchor="middle" x="554.5" y="-240.69" font-family="Times,serif" font-size="14.00" fill="#e7298a">16379/tcp</text>
</g>
<!-- n1&#45;&gt;n7 -->
<g id="edge18" class="edge">
<title>n1:out&#45;&gt;n7:16379</title>
<path fill="none" stroke="#e7298a" d="M415,-61.39C415,-87.02 381.95,-263.83 380,-289.39 379.49,-296.04 375.91,-299.12 380,-304.39 399.68,-329.78 419.43,-312.51 450,-322.39 510.86,-342.06 670.46,-384.6 718,-427.39 738.09,-445.48 724.27,-465.31 746,-481.39 762.35,-493.48 905.85,-511.7 926,-514.39 946.88,-517.18 1097.68,-510.47 1132.73,-525.28"/>
<polygon fill="#e7298a" stroke="#e7298a" points="1130.4,-527.9 1140,-532.39 1135.3,-522.9 1130.4,-527.9"/>
<text text-anchor="middle" x="416.5" y="-293.19" font-family="Times,serif" font-size="14.00" fill="#e7298a">16379/tcp</text>
</g>
<!-- n1&#45;&gt;n9 -->
<g id="edge19" class="edge">
<title>n1:out&#45;&gt;n9:16379</title>
<path fill="none" stroke="#e7298a" d="M272,-34.39C225.64,-34.39 264,-92.03 264,-138.39 264,-297.89 264,-297.89 264,-297.89 264,-333.33 256.63,-348.12 278,-376.39 289.03,-390.98 298.96,-385.61 315,-394.39 339.67,-407.89 345.23,-412.36 369,-427.39 428.7,-465.14 436.26,-488.55 502,-514.39 546.07,-531.71 561.1,-520.78 607,-532.39 679.76,-550.79 693.18,-572.84 767,-586.39 976.54,-624.85 1034.28,-580.7 1246,-604.39 1281.95,-608.41 1290.32,-613.44 1326,-619.39 1349.63,-623.33 1424.77,-613.2 1444.32,-628.45"/>
<polygon fill="#e7298a" stroke="#e7298a" points="1441.26,-630.16 1449,-637.39 1447.46,-626.91 1441.26,-630.16"/>
<text text-anchor="middle" x="314.5" y="-345.69" font-family="Times,serif" font-size="14.00" fill="#e7298a">16379/tcp</text>
</g>
<!-- n3&#45;&gt;n8 -->
<g id="edge28" class="edge">
<title>n3:out&#45;&gt;n8:16379</title>
<path fill="none" stroke="#e7298a" d="M1549,-166.39C1549,-189.37 1732.75,-178.67 1755,-184.39 2018.88,-252.28 2277,-233.42 2277,-505.89 2277,-770.39 2277,-770.39 2277,-770.39 2277,-834.91 1787.86,-859.42 1689.24,-861.27"/>
<polygon fill="#e7298a" stroke="#e7298a" points="1688.96,-857.78 1679,-861.39 1689.04,-864.78 1688.96,-857.78"/>
<text text-anchor="middle" x="2313.5" y="-503.19" font-family="Times,serif" font-size="14.00" fill="#e7298a">16379/tcp</text>
</g>
<!-- n3&#45;&gt;n2 -->
<g id="edge29" class="edge">
<title>n3:out&#45;&gt;n2:16379</title>
<path fill="none" stroke="#e7298a" d="M1549,-166.39C1549,-176.01 1619.79,-196.64 1629,-199.39 1669.76,-211.56 1687.56,-193.87 1723,-217.39 1761.72,-243.09 1741.71,-279.57 1781,-304.39 1828.08,-334.14 1859.81,-289.84 1905,-322.39 1964.36,-365.15 2088.72,-559.3 2047,-619.39 1994.79,-694.6 1941.93,-665.9 1854,-691.39 1785.52,-711.24 1767.71,-715.18 1697,-724.39 1631.76,-732.89 1187.27,-754.56 1091.16,-756.28"/>
<polygon fill="#e7298a" stroke="#e7298a" points="1090.96,-752.78 1081,-756.39 1091.04,-759.78 1090.96,-752.78"/>
<text text-anchor="middle" x="2058.5" y="-450.69" font-family="Times,serif" font-size="14.00" fill="#e7298a">16379/tcp</text>
</g>
<!-- n3&#45;&gt;n1 -->
<g id="edge30" class="edge">
<title>n3:out&#45;&gt;n1:6379</title>
<path fill="none" stroke="#7570b3" d="M1406,-139.39C1355.69,-139.39 1358.03,-94.39 1310,-79.39 1242.39,-58.28 760.45,-49.1 658.3,-48.43"/>
<polygon fill="#7570b3" stroke="#7570b3" points="658.01,-44.93 648,-48.39 657.99,-51.93 658.01,-44.93"/>
<text text-anchor="middle" x="1369" y="-83.19" font-family="Times,serif" font-size="14.00" fill="#7570b3">6379/tcp</text>
</g>
<!-- n3&#45;&gt;n1 -->
<g id="edge31" class="edge">
<title>n3:out&#45;&gt;n1:16379</title>
<path fill="none" stroke="#e7298a" d="M1406,-139.39C1068.55,-139.39 990.54,-23.8 658.41,-21.43"/>
<polygon fill="#e7298a" stroke="#e7298a" points="658.01,-17.93 648,-21.39 657.99,-24.93 658.01,-17.93"/>
<text text-anchor="middle" x="1101.5" y="-83.19" font-family="Times,serif" font-size="14.00" fill="#e7298a">16379/tcp</text>
</g>
<!-- n3&#45;&gt;n4 -->
<g id="edge32" class="edge">
<title>n3:out&#45;&gt;n4:16379</title>
<path fill="none" stroke="#e7298a" d="M1406,-139.39C1308.81,-139.39 1281.8,-147.21 1192,-184.39 1180.72,-189.06 1179.94,-193.98 1169,-199.39 1134.22,-216.61 1123.3,-229.09 1089.25,-231.1"/>
<polygon fill="#e7298a" stroke="#e7298a" points="1088.9,-227.61 1079,-231.39 1089.09,-234.61 1088.9,-227.61"/>
<text text-anchor="middle" x="1228.5" y="-188.19" font-family="Times,serif" font-size="14.00" fill="#e7298a">16379/tcp</text>
</g>
<!-- n3&#45;&gt;n5 -->
<g id="edge33" class="edge">
<title>n3:out&#45;&gt;n5:16379</title>
<path fill="none" stroke="#e7298a" d="M1549,-166.39C1549,-196.92 1513.95,-188.9 1503,-217.39 1494.39,-239.79 1488.87,-251.99 1503,-271.39 1507.64,-277.77 1619.97,-303.81 1652.34,-316.98"/>
<polygon fill="#e7298a" stroke="#e7298a" points="1650.67,-320.05 1661,-322.39 1654.38,-314.12 1650.67,-320.05"/>
<text text-anchor="middle" x="1539.5" y="-240.69" font-family="Times,serif" font-size="14.00" fill="#e7298a">16379/tcp</text>
</g>
<!-- n3&#45;&gt;n6 -->
<g id="edge25" class="edge">
<title>n3:out&#45;&gt;n6:16379</title>
<path fill="none" stroke="#e7298a" d="M1406,-139.39C1289.71,-139.39 1246.4,-209.38 1219,-322.39 1209.85,-360.13 1201.35,-380.23 1227,-409.39 1238.54,-422.51 1260.74,-412.46 1269.89,-418.11"/>
<polygon fill="#e7298a" stroke="#e7298a" points="1266.75,-419.66 1274,-427.39 1273.16,-416.83 1266.75,-419.66"/>
<text text-anchor="middle" x="1264.5" y="-293.19" font-family="Times,serif" font-size="14.00" fill="#e7298a">16379/tcp</text>
</g>
<!-- n3&#45;&gt;n7 -->
<g id="edge26" class="edge">
<title>n3:out&#45;&gt;n7:16379</title>
<path fill="none" stroke="#e7298a" d="M1406,-139.39C1320.02,-139.39 1372.31,-250.89 1305,-304.39 1285.2,-320.13 1265.79,-301.87 1251,-322.39 1228.01,-354.28 1237.01,-383.97 1267,-409.39 1288.56,-427.67 1311.08,-404.75 1328,-427.39 1342.37,-446.61 1341.92,-461.84 1328,-481.39 1313.81,-501.31 1298.46,-489.7 1276,-499.39 1271.75,-501.22 1217.71,-531.68 1195.31,-542.56"/>
<polygon fill="#e7298a" stroke="#e7298a" points="1193.92,-539.35 1186,-546.39 1196.58,-545.82 1193.92,-539.35"/>
<text text-anchor="middle" x="1287.5" y="-345.69" font-family="Times,serif" font-size="14.00" fill="#e7298a">16379/tcp</text>
</g>
<!-- n3&#45;&gt;n9 -->
<g id="edge27" class="edge">
<title>n3:out&#45;&gt;n9:16379</title>
<path fill="none" stroke="#e7298a" d="M1549,-166.39C1549,-196.69 1613.34,-251.27 1636,-271.39 1667.25,-299.14 1680.79,-298.39 1715,-322.39 1747.46,-345.16 1750.21,-359.35 1786,-376.39 1818.51,-391.87 1872.49,-375.62 1860,-409.39 1838.68,-467.04 1823.25,-483.7 1770,-514.39 1732.01,-536.28 1712.53,-513.43 1673,-532.39 1619.58,-558.02 1623.6,-590.28 1572,-619.39 1549.6,-632.03 1540.25,-626.4 1517,-637.39 1510.61,-640.41 1508.15,-644.95 1504.57,-648.03"/>
<polygon fill="#e7298a" stroke="#e7298a" points="1503.28,-644.78 1495,-651.39 1505.59,-651.38 1503.28,-644.78"/>
<text text-anchor="middle" x="1897.5" y="-398.19" font-family="Times,serif" font-size="14.00" fill="#e7298a">16379/tcp</text>
</g>
<!-- n4&#45;&gt;n8 -->
<g id="edge38" class="edge">
<title>n4:out&#45;&gt;n8:6379</title>
<path fill="none" stroke="#7570b3" d="M703,-244.39C696.93,-244.39 700.93,-265.64 699,-271.39 693.69,-287.23 690.72,-290.8 681,-304.39 612.55,-400.07 544.69,-389.76 502,-499.39 464,-596.98 506.92,-642.33 572,-724.39 604.26,-765.07 615.71,-777.32 664,-796.39 819.21,-857.67 871.41,-819.71 1038,-829.39 1055.74,-830.42 1665.11,-834.65 1677.5,-847.39 1694.23,-864.6 1694.28,-884.23 1677.5,-901.39 1672.69,-906.31 1653.06,-909.65 1641.54,-907.91"/>
<polygon fill="#7570b3" stroke="#7570b3" points="1643.3,-904.88 1633,-902.39 1639.5,-910.76 1643.3,-904.88"/>
<text text-anchor="middle" x="524" y="-555.69" font-family="Times,serif" font-size="14.00" fill="#7570b3">6379/tcp</text>
</g>
<!-- n4&#45;&gt;n8 -->
<g id="edge39" class="edge">
<title>n4:out&#45;&gt;n8:16379</title>
<path fill="none" stroke="#e7298a" d="M703,-244.39C696.93,-244.39 702.69,-266.58 699,-271.39 685.69,-288.72 357.41,-417.37 338,-427.39 258.08,-468.66 209.12,-454.01 165,-532.39 153.23,-553.31 152.71,-565.77 165,-586.39 402.69,-985.22 717.23,-807.36 1181,-829.39 1192.45,-829.93 1559.05,-834.01 1623.4,-844.25"/>
<polygon fill="#e7298a" stroke="#e7298a" points="1622.41,-847.61 1633,-847.39 1624.58,-840.96 1622.41,-847.61"/>
<text text-anchor="middle" x="201.5" y="-555.69" font-family="Times,serif" font-size="14.00" fill="#e7298a">16379/tcp</text>
</g>
<!-- n4&#45;&gt;n2 -->
<g id="edge40" class="edge">
<title>n4:out&#45;&gt;n2:16379</title>
<path fill="none" stroke="#e7298a" d="M703,-244.39C696.93,-244.39 701.49,-265.86 699,-271.39 670.72,-334.13 484.99,-449.18 507,-514.39 525.76,-569.98 615.08,-697.08 667,-724.39 683.38,-733.01 971.07,-724.02 1025.98,-737.36"/>
<polygon fill="#e7298a" stroke="#e7298a" points="1024.56,-740.57 1035,-742.39 1027.97,-734.46 1024.56,-740.57"/>
<text text-anchor="middle" x="543.5" y="-503.19" font-family="Times,serif" font-size="14.00" fill="#e7298a">16379/tcp</text>
</g>
<!-- n4&#45;&gt;n1 -->
<g id="edge41" class="edge">
<title>n4:out&#45;&gt;n1:16379</title>
<path fill="none" stroke="#e7298a" d="M846,-217.39C846,-96.95 775.82,-25.38 658.05,-21.55"/>
<polygon fill="#e7298a" stroke="#e7298a" points="658.05,-18.05 648,-21.39 657.94,-25.05 658.05,-18.05"/>
<text text-anchor="middle" x="877.5" y="-135.69" font-family="Times,serif" font-size="14.00" fill="#e7298a">16379/tcp</text>
</g>
<!-- n4&#45;&gt;n3 -->
<g id="edge42" class="edge">
<title>n4:out&#45;&gt;n3:16379</title>
<path fill="none" stroke="#e7298a" d="M846,-217.39C846,-205.63 1257.26,-200.02 1269,-199.39 1297.44,-197.87 1761.02,-187.16 1780.5,-166.39 1796.92,-148.88 1797.28,-129.55 1780.5,-112.39 1775.69,-107.47 1756.06,-104.13 1744.54,-105.87"/>
<polygon fill="#e7298a" stroke="#e7298a" points="1742.5,-103.02 1736,-111.39 1746.3,-108.9 1742.5,-103.02"/>
<text text-anchor="middle" x="1670.5" y="-188.19" font-family="Times,serif" font-size="14.00" fill="#e7298a">16379/tcp</text>
</g>
<!-- n4&#45;&gt;n5 -->
<g id="edge34" class="edge">
<title>n4:out&#45;&gt;n5:16379</title>
<path fill="none" stroke="#e7298a" d="M846,-271.39C846,-299.13 1067.8,-283.96 1095,-289.39 1115.67,-293.52 1119.25,-300.65 1140,-304.39 1166.33,-309.13 1588.66,-295.76 1652.85,-316.53"/>
<polygon fill="#e7298a" stroke="#e7298a" points="1650.84,-319.39 1661,-322.39 1654.93,-313.71 1650.84,-319.39"/>
<text text-anchor="middle" x="1176.5" y="-293.19" font-family="Times,serif" font-size="14.00" fill="#e7298a">16379/tcp</text>
</g>
<!-- n4&#45;&gt;n6 -->
<g id="edge35" class="edge">
<title>n4:out&#45;&gt;n6:16379</title>
<path fill="none" stroke="#e7298a" d="M846,-271.39C846,-284.26 939.84,-314.49 950,-322.39 974.9,-341.73 968.69,-360.63 996,-376.39 997.51,-377.26 1214.92,-415.14 1264.16,-425.08"/>
<polygon fill="#e7298a" stroke="#e7298a" points="1263.47,-428.52 1274,-427.39 1265.06,-421.7 1263.47,-428.52"/>
<text text-anchor="middle" x="1032.5" y="-345.69" font-family="Times,serif" font-size="14.00" fill="#e7298a">16379/tcp</text>
</g>
<!-- n4&#45;&gt;n7 -->
<g id="edge36" class="edge">
<title>n4:out&#45;&gt;n7:16379</title>
<path fill="none" stroke="#e7298a" d="M846,-271.39C846,-318.6 843.26,-331.09 830,-376.39 825.76,-390.87 814.3,-396.41 822,-409.39 830.53,-423.76 841.26,-417.89 855,-427.39 903.72,-461.1 901.53,-491.08 956,-514.39 972.38,-521.4 1098.72,-514.34 1131.99,-525.74"/>
<polygon fill="#e7298a" stroke="#e7298a" points="1130.07,-528.69 1140,-532.39 1134.54,-523.31 1130.07,-528.69"/>
<text text-anchor="middle" x="858.5" y="-398.19" font-family="Times,serif" font-size="14.00" fill="#e7298a">16379/tcp</text>
</g>
<!-- n4&#45;&gt;n9 -->
<g id="edge37" class="edge">
<title>n4:out&#45;&gt;n9:16379</title>
<path fill="none" stroke="#e7298a" d="M703,-244.39C690.99,-244.39 700.31,-259.96 704,-271.39 706.96,-280.54 711.95,-280.67 716,-289.39 744.95,-351.7 747.79,-544.17 802,-586.39 847.7,-621.98 1267.07,-589.32 1323,-604.39 1336.63,-608.06 1337.68,-614.73 1351,-619.39 1368.47,-625.51 1425.21,-618.5 1443.36,-628.97"/>
<polygon fill="#e7298a" stroke="#e7298a" points="1440.53,-631.03 1449,-637.39 1446.34,-627.13 1440.53,-631.03"/>
<text text-anchor="middle" x="793.5" y="-450.69" font-family="Times,serif" font-size="14.00" fill="#e7298a">16379/tcp</text>
</g>
<!-- n5&#45;&gt;n8 -->
<g id="edge45" class="edge">
<title>n5:out&#45;&gt;n8:6379</title>
<path fill="none" stroke="#7570b3" d="M1474,-376.39C1474,-398.59 1651.1,-390.73 1673,-394.39 1703.25,-399.45 1778.89,-415.13 1807,-427.39 1884.97,-461.38 1899.64,-480.46 1967,-532.39 2004.88,-561.6 2027.54,-560.69 2047,-604.39 2090.3,-701.62 2046.34,-760.74 1965,-829.39 1917.83,-869.2 1760.35,-886.66 1689.24,-888.27"/>
<polygon fill="#7570b3" stroke="#7570b3" points="1688.96,-884.77 1679,-888.39 1689.04,-891.77 1688.96,-884.77"/>
<text text-anchor="middle" x="2085" y="-608.19" font-family="Times,serif" font-size="14.00" fill="#7570b3">6379/tcp</text>
</g>
<!-- n5&#45;&gt;n8 -->
<g id="edge46" class="edge">
<title>n5:out&#45;&gt;n8:16379</title>
<path fill="none" stroke="#e7298a" d="M1474,-376.39C1474,-393.62 1611.31,-390.1 1628,-394.39 1713.67,-416.41 1729.03,-439.63 1807,-481.39 1850.28,-504.57 1879.53,-490.42 1905,-532.39 1917.45,-552.91 1915.51,-564.82 1905,-586.39 1899.31,-598.06 1889.43,-593.74 1882,-604.39 1858.76,-637.71 1871.47,-654.72 1854,-691.39 1822.5,-757.49 1821.1,-783.55 1764,-829.39 1735.35,-852.39 1721.88,-860.03 1689.25,-861.22"/>
<polygon fill="#e7298a" stroke="#e7298a" points="1688.94,-857.72 1679,-861.39 1689.06,-864.72 1688.94,-857.72"/>
<text text-anchor="middle" x="1918.5" y="-608.19" font-family="Times,serif" font-size="14.00" fill="#e7298a">16379/tcp</text>
</g>
<!-- n5&#45;&gt;n2 -->
<g id="edge47" class="edge">
<title>n5:out&#45;&gt;n2:16379</title>
<path fill="none" stroke="#e7298a" d="M1474,-376.39C1474,-401.27 1503.5,-386.23 1527,-394.39 1655.81,-439.11 1714.9,-426.66 1801,-532.39 1811.95,-545.83 1867.81,-656.17 1836,-691.39 1809.1,-721.17 1185.85,-753.23 1091.02,-756.17"/>
<polygon fill="#e7298a" stroke="#e7298a" points="1090.92,-752.67 1081,-756.39 1091.07,-759.67 1090.92,-752.67"/>
<text text-anchor="middle" x="1864.5" y="-555.69" font-family="Times,serif" font-size="14.00" fill="#e7298a">16379/tcp</text>
</g>
<!-- n5&#45;&gt;n1 -->
<g id="edge48" class="edge">
<title>n5:out&#45;&gt;n1:16379</title>
<path fill="none" stroke="#e7298a" d="M1331,-349.39C1317.68,-349.39 1328.94,-329.98 1318,-322.39 1281.7,-297.21 1155.32,-330.93 1120,-304.39 1086.81,-279.45 1117.81,-244.07 1086,-217.39 1054.74,-191.18 1031.43,-219.61 996,-199.39 950.9,-173.65 961.37,-140.96 918,-112.39 815.14,-44.63 776.74,-22.59 658.19,-21.44"/>
<polygon fill="#e7298a" stroke="#e7298a" points="658.02,-17.94 648,-21.39 657.98,-24.94 658.02,-17.94"/>
<text text-anchor="middle" x="1032.5" y="-188.19" font-family="Times,serif" font-size="14.00" fill="#e7298a">16379/tcp</text>
</g>
<!-- n5&#45;&gt;n3 -->
<g id="edge49" class="edge">
<title>n5:out&#45;&gt;n3:16379</title>
<path fill="none" stroke="#e7298a" d="M1474,-322.39C1474,-294.11 1574.67,-316.97 1600,-304.39 1649.26,-279.94 1643.94,-250.31 1688,-217.39 1706.8,-203.34 1768.56,-186.6 1780.5,-166.39 1792.7,-145.73 1797.28,-129.55 1780.5,-112.39 1775.69,-107.47 1756.06,-104.13 1744.54,-105.87"/>
<polygon fill="#e7298a" stroke="#e7298a" points="1742.5,-103.02 1736,-111.39 1746.3,-108.9 1742.5,-103.02"/>
<text text-anchor="middle" x="1724.5" y="-240.69" font-family="Times,serif" font-size="14.00" fill="#e7298a">16379/tcp</text>
</g>
<!-- n5&#45;&gt;n4 -->
<g id="edge50" class="edge">
<title>n5:out&#45;&gt;n4:16379</title>
<path fill="none" stroke="#e7298a" d="M1331,-349.39C1317.68,-349.39 1329.06,-329.81 1318,-322.39 1290.36,-303.84 1041.82,-328.62 1019,-304.39 1014.43,-299.54 1015.04,-294.75 1019,-289.39 1035.16,-267.51 1061.34,-293.27 1077.5,-271.39 1091.76,-252.09 1094.28,-234.55 1077.5,-217.39 1072.69,-212.47 1053.06,-209.13 1041.54,-210.87"/>
<polygon fill="#e7298a" stroke="#e7298a" points="1039.5,-208.02 1033,-216.39 1043.3,-213.9 1039.5,-208.02"/>
<text text-anchor="middle" x="1055.5" y="-293.19" font-family="Times,serif" font-size="14.00" fill="#e7298a">16379/tcp</text>
</g>
<!-- n5&#45;&gt;n6 -->
<g id="edge51" class="edge">
<title>n5:out&#45;&gt;n6:16379</title>
<path fill="none" stroke="#e7298a" d="M1331,-349.39C1317.68,-349.39 1327.66,-367.22 1318,-376.39 1302.97,-390.65 1286.74,-377.32 1275,-394.39 1268.89,-403.27 1271.22,-408.99 1272.88,-417.22"/>
<polygon fill="#e7298a" stroke="#e7298a" points="1269.43,-417.83 1274,-427.39 1276.39,-417.07 1269.43,-417.83"/>
<text text-anchor="middle" x="1311.5" y="-398.19" font-family="Times,serif" font-size="14.00" fill="#e7298a">16379/tcp</text>
</g>
<!-- n5&#45;&gt;n7 -->
<g id="edge43" class="edge">
<title>n5:out&#45;&gt;n7:16379</title>
<path fill="none" stroke="#e7298a" d="M1474,-376.39C1474,-413.81 1436.59,-404.48 1407,-427.39 1382.07,-446.7 1386.97,-463.52 1361,-481.39 1305.07,-519.88 1279.99,-507.06 1217,-532.39 1206.92,-536.44 1203.12,-541.9 1196.17,-544.65"/>
<polygon fill="#e7298a" stroke="#e7298a" points="1195.27,-541.26 1186,-546.39 1196.45,-548.16 1195.27,-541.26"/>
<text text-anchor="middle" x="1443.5" y="-450.69" font-family="Times,serif" font-size="14.00" fill="#e7298a">16379/tcp</text>
</g>
<!-- n5&#45;&gt;n9 -->
<g id="edge44" class="edge">
<title>n5:out&#45;&gt;n9:16379</title>
<path fill="none" stroke="#e7298a" d="M1474,-376.39C1474,-433.93 1552.28,-386.74 1593,-427.39 1617.66,-452.01 1616.97,-465.27 1624,-499.39 1625.35,-505.92 1626.46,-508.19 1624,-514.39 1596.26,-584.23 1559.34,-582.52 1508,-637.39 1505.55,-640.01 1504.37,-642.91 1503.18,-645.39"/>
<polygon fill="#e7298a" stroke="#e7298a" points="1500.99,-642.65 1495,-651.39 1505.13,-648.29 1500.99,-642.65"/>
<text text-anchor="middle" x="1661.5" y="-503.19" font-family="Times,serif" font-size="14.00" fill="#e7298a">16379/tcp</text>
</g>
<!-- n6&#45;&gt;n8 -->
<g id="edge54" class="edge">
<title>n6:out&#45;&gt;n8:16379</title>
<path fill="none" stroke="#e7298a" d="M1087,-481.39C1087,-496.65 1346.08,-496.19 1361,-499.39 1446.8,-517.8 1676.61,-568.52 1731,-637.39 1792.18,-714.85 1782.01,-851.63 1689.17,-860.89"/>
<polygon fill="#e7298a" stroke="#e7298a" points="1688.82,-857.41 1679,-861.39 1689.16,-864.4 1688.82,-857.41"/>
<text text-anchor="middle" x="1795.5" y="-660.69" font-family="Times,serif" font-size="14.00" fill="#e7298a">16379/tcp</text>
</g>
<!-- n6&#45;&gt;n2 -->
<g id="edge55" class="edge">
<title>n6:out&#45;&gt;n2:6379</title>
<path fill="none" stroke="#7570b3" d="M944,-454.39C908,-454.39 820.33,-501.4 802,-532.39 789.78,-553.05 791.84,-564.65 802,-586.39 816.96,-618.4 837.51,-612.92 863,-637.39 900.68,-673.56 895.72,-700.19 942,-724.39 969.31,-738.67 1059.17,-719.23 1079.5,-742.39 1095.33,-760.43 1096.28,-779.23 1079.5,-796.39 1074.69,-801.31 1055.06,-804.65 1043.54,-802.91"/>
<polygon fill="#7570b3" stroke="#7570b3" points="1045.3,-799.88 1035,-797.39 1041.5,-805.76 1045.3,-799.88"/>
<text text-anchor="middle" x="870" y="-608.19" font-family="Times,serif" font-size="14.00" fill="#7570b3">6379/tcp</text>
</g>
<!-- n6&#45;&gt;n2 -->
<g id="edge56" class="edge">
<title>n6:out&#45;&gt;n2:16379</title>
<path fill="none" stroke="#e7298a" d="M944,-454.39C928.82,-454.39 827.27,-490.46 815,-499.39 763.76,-536.68 721.46,-558.22 738,-619.39 747.67,-655.15 749.78,-669.96 780,-691.39 814.34,-715.75 832.35,-698.43 873,-709.39 892.54,-714.66 896.35,-719.52 916,-724.39 938.41,-729.94 1010.81,-719.39 1030.19,-733.61"/>
<polygon fill="#e7298a" stroke="#e7298a" points="1027.13,-735.3 1035,-742.39 1033.27,-731.94 1027.13,-735.3"/>
<text text-anchor="middle" x="774.5" y="-608.19" font-family="Times,serif" font-size="14.00" fill="#e7298a">16379/tcp</text>
</g>
<!-- n6&#45;&gt;n1 -->
<g id="edge57" class="edge">
<title>n6:out&#45;&gt;n1:16379</title>
<path fill="none" stroke="#e7298a" d="M944,-454.39C931.99,-454.39 938.56,-437.52 945,-427.39 954.39,-412.63 970.89,-424.32 980,-409.39 983.47,-403.7 983.87,-399.82 980,-394.39 955.56,-360.16 646.44,-305.62 622,-271.39 608.06,-251.86 621.43,-241.38 622,-217.39 623.11,-170.68 617.23,-158.08 627,-112.39 632.09,-88.58 642.18,-85.26 647,-61.39 649.42,-49.41 657.39,-34.99 656.36,-27.16"/>
<polygon fill="#e7298a" stroke="#e7298a" points="658.22,-24.19 648,-21.39 654.24,-29.95 658.22,-24.19"/>
<text text-anchor="middle" x="658.5" y="-240.69" font-family="Times,serif" font-size="14.00" fill="#e7298a">16379/tcp</text>
</g>
<!-- n6&#45;&gt;n3 -->
<g id="edge58" class="edge">
<title>n6:out&#45;&gt;n3:16379</title>
<path fill="none" stroke="#e7298a" d="M1087,-427.39C1087,-407.31 1427.99,-411.12 1448,-409.39 1567.12,-399.07 1618.01,-446.32 1715,-376.39 1805.39,-311.22 1891.48,-137.7 1792.19,-126.92"/>
<polygon fill="#e7298a" stroke="#e7298a" points="1792.17,-123.41 1782,-126.39 1791.81,-130.4 1792.17,-123.41"/>
<text text-anchor="middle" x="1830.5" y="-293.19" font-family="Times,serif" font-size="14.00" fill="#e7298a">16379/tcp</text>
</g>
<!-- n6&#45;&gt;n4 -->
<g id="edge59" class="edge">
<title>n6:out&#45;&gt;n4:16379</title>
<path fill="none" stroke="#e7298a" d="M1087,-427.39C1087,-380.04 1100.13,-358.07 1069,-322.39 1051.54,-302.37 1027.7,-325.82 1012,-304.39 985.22,-267.86 1050,-307.46 1077.5,-271.39 1092.05,-252.3 1094.28,-234.55 1077.5,-217.39 1072.69,-212.47 1053.06,-209.13 1041.54,-210.87"/>
<polygon fill="#e7298a" stroke="#e7298a" points="1039.5,-208.02 1033,-216.39 1043.3,-213.9 1039.5,-208.02"/>
<text text-anchor="middle" x="1126.5" y="-345.69" font-family="Times,serif" font-size="14.00" fill="#e7298a">16379/tcp</text>
</g>
<!-- n6&#45;&gt;n5 -->
<g id="edge60" class="edge">
<title>n6:out&#45;&gt;n5:16379</title>
<path fill="none" stroke="#e7298a" d="M1087,-427.39C1087,-398.32 1320.44,-418.63 1348,-409.39 1359.57,-405.51 1359.4,-398.18 1371,-394.39 1406.38,-382.83 1679.9,-403.41 1705.5,-376.39 1722.01,-358.97 1722.28,-339.55 1705.5,-322.39 1700.69,-317.47 1681.06,-314.13 1669.54,-315.87"/>
<polygon fill="#e7298a" stroke="#e7298a" points="1667.5,-313.02 1661,-321.39 1671.3,-318.9 1667.5,-313.02"/>
<text text-anchor="middle" x="1407.5" y="-398.19" font-family="Times,serif" font-size="14.00" fill="#e7298a">16379/tcp</text>
</g>
<!-- n6&#45;&gt;n7 -->
<g id="edge52" class="edge">
<title>n6:out&#45;&gt;n7:16379</title>
<path fill="none" stroke="#e7298a" d="M1087,-481.39C1087,-510.12 1127.94,-502.49 1137.86,-522.42"/>
<polygon fill="#e7298a" stroke="#e7298a" points="1134.48,-523.35 1140,-532.39 1141.32,-521.88 1134.48,-523.35"/>
<text text-anchor="middle" x="1166.5" y="-503.19" font-family="Times,serif" font-size="14.00" fill="#e7298a">16379/tcp</text>
</g>
<!-- n6&#45;&gt;n9 -->
<g id="edge53" class="edge">
<title>n6:out&#45;&gt;n9:16379</title>
<path fill="none" stroke="#e7298a" d="M1087,-481.39C1087,-508.36 1186.45,-481.93 1207,-499.39 1237.96,-525.69 1203.2,-561.11 1235,-586.39 1272.36,-616.09 1404.31,-587.65 1449,-604.39 1475.7,-614.39 1492.05,-630.87 1497.17,-641.42"/>
<polygon fill="#e7298a" stroke="#e7298a" points="1493.7,-640.88 1495,-651.39 1500.54,-642.36 1493.7,-640.88"/>
<text text-anchor="middle" x="1271.5" y="-555.69" font-family="Times,serif" font-size="14.00" fill="#e7298a">16379/tcp</text>
</g>
<!-- n7&#45;&gt;n8 -->
<g id="edge66" class="edge">
<title>n7:out&#45;&gt;n8:16379</title>
<path fill="none" stroke="#e7298a" d="M810,-559.39C787.58,-559.39 683.03,-688.46 675,-709.39 660.71,-746.63 665.6,-771.8 697,-796.39 706.63,-803.93 1524.25,-830.82 1623.23,-844.85"/>
<polygon fill="#e7298a" stroke="#e7298a" points="1622.44,-848.26 1633,-847.39 1624.2,-841.49 1622.44,-848.26"/>
<text text-anchor="middle" x="711.5" y="-713.19" font-family="Times,serif" font-size="14.00" fill="#e7298a">16379/tcp</text>
</g>
<!-- n7&#45;&gt;n2 -->
<g id="edge67" class="edge">
<title>n7:out&#45;&gt;n2:6379</title>
<path fill="none" stroke="#7570b3" d="M953,-586.39C953,-594.33 997.87,-631.33 1003,-637.39 1012.33,-648.41 1075.03,-728.67 1079.5,-742.39 1086.93,-765.21 1096.28,-779.23 1079.5,-796.39 1074.69,-801.31 1055.06,-804.65 1043.54,-802.91"/>
<polygon fill="#7570b3" stroke="#7570b3" points="1045.3,-799.88 1035,-797.39 1041.5,-805.76 1045.3,-799.88"/>
<text text-anchor="middle" x="1077" y="-660.69" font-family="Times,serif" font-size="14.00" fill="#7570b3">6379/tcp</text>
</g>
<!-- n7&#45;&gt;n2 -->
<g id="edge68" class="edge">
<title>n7:out&#45;&gt;n2:16379</title>
<path fill="none" stroke="#e7298a" d="M953,-586.39C953,-612.04 932.18,-612.5 926,-637.39 920.21,-660.68 913.15,-671.12 926,-691.39 944.42,-720.44 964.83,-709.85 996,-724.39 1008.98,-730.44 1024.43,-726.8 1031.34,-732.66"/>
<polygon fill="#e7298a" stroke="#e7298a" points="1028.2,-734.26 1035,-742.39 1034.75,-731.8 1028.2,-734.26"/>
<text text-anchor="middle" x="962.5" y="-660.69" font-family="Times,serif" font-size="14.00" fill="#e7298a">16379/tcp</text>
</g>
<!-- n7&#45;&gt;n1 -->
<g id="edge69" class="edge">
<title>n7:out&#45;&gt;n1:16379</title>
<path fill="none" stroke="#e7298a" d="M810,-559.39C716.97,-559.39 517.34,-388.69 478,-304.39 433.6,-209.24 465.08,-141.14 550,-79.39 585.29,-53.73 618.62,-94.95 646.5,-61.39 661.84,-42.93 663.28,-24.55 646.5,-7.39 641.69,-2.47 622.06,0.87 610.54,-0.87"/>
<polygon fill="#e7298a" stroke="#e7298a" points="608.5,1.98 602,-6.39 612.3,-3.9 608.5,1.98"/>
<text text-anchor="middle" x="514.5" y="-293.19" font-family="Times,serif" font-size="14.00" fill="#e7298a">16379/tcp</text>
</g>
<!-- n7&#45;&gt;n3 -->
<g id="edge61" class="edge">
<title>n7:out&#45;&gt;n3:16379</title>
<path fill="none" stroke="#e7298a" d="M953,-532.39C953,-512.09 1297.77,-516.12 1318,-514.39 1378.45,-509.23 1531.86,-501.76 1589,-481.39 1623.67,-469.03 1851.24,-336.63 1869,-304.39 1909.83,-230.28 1873.16,-134.24 1792.1,-126.84"/>
<polygon fill="#e7298a" stroke="#e7298a" points="1792.15,-123.34 1782,-126.39 1791.83,-130.34 1792.15,-123.34"/>
<text text-anchor="middle" x="1887.5" y="-345.69" font-family="Times,serif" font-size="14.00" fill="#e7298a">16379/tcp</text>
</g>
<!-- n7&#45;&gt;n4 -->
<g id="edge62" class="edge">
<title>n7:out&#45;&gt;n4:16379</title>
<path fill="none" stroke="#e7298a" d="M810,-559.39C797.99,-559.39 806.61,-543.57 811,-532.39 821.95,-504.53 837.71,-505.83 855,-481.39 866.76,-464.77 931.7,-336.87 946,-322.39 966.3,-301.83 975.21,-300.19 1002,-289.39 1033.99,-276.49 1056.12,-298.46 1077.5,-271.39 1118.77,-219.13 1062.99,-204.96 1041.12,-210.16"/>
<polygon fill="#e7298a" stroke="#e7298a" points="1038.8,-207.53 1033,-216.39 1043.06,-213.08 1038.8,-207.53"/>
<text text-anchor="middle" x="939.5" y="-398.19" font-family="Times,serif" font-size="14.00" fill="#e7298a">16379/tcp</text>
</g>
<!-- n7&#45;&gt;n5 -->
<g id="edge63" class="edge">
<title>n7:out&#45;&gt;n5:16379</title>
<path fill="none" stroke="#e7298a" d="M953,-532.39C953,-501.02 1063.13,-523.95 1093,-514.39 1106.45,-510.09 1107.4,-503.17 1121,-499.39 1197.96,-478.01 1410.54,-520.83 1480,-481.39 1505.08,-467.15 1492.57,-444.22 1516,-427.39 1524.86,-421.03 1698.87,-385.04 1705.5,-376.39 1720.1,-357.34 1722.28,-339.55 1705.5,-322.39 1700.69,-317.47 1681.06,-314.13 1669.54,-315.87"/>
<polygon fill="#e7298a" stroke="#e7298a" points="1667.5,-313.02 1661,-321.39 1671.3,-318.9 1667.5,-313.02"/>
<text text-anchor="middle" x="1552.5" y="-450.69" font-family="Times,serif" font-size="14.00" fill="#e7298a">16379/tcp</text>
</g>
<!-- n7&#45;&gt;n6 -->
<g id="edge64" class="edge">
<title>n7:out&#45;&gt;n6:16379</title>
<path fill="none" stroke="#e7298a" d="M953,-532.39C953,-499.2 987.91,-507.89 1020,-499.39 1052.12,-490.88 1295.72,-505.58 1318.5,-481.39 1334.95,-463.92 1335.28,-444.55 1318.5,-427.39 1313.69,-422.47 1294.06,-419.13 1282.54,-420.87"/>
<polygon fill="#e7298a" stroke="#e7298a" points="1280.5,-418.02 1274,-426.39 1284.3,-423.9 1280.5,-418.02"/>
<text text-anchor="middle" x="1056.5" y="-503.19" font-family="Times,serif" font-size="14.00" fill="#e7298a">16379/tcp</text>
</g>
<!-- n7&#45;&gt;n9 -->
<g id="edge65" class="edge">
<title>n7:out&#45;&gt;n9:16379</title>
<path fill="none" stroke="#e7298a" d="M953,-586.39C953,-608.41 1328.04,-597.64 1349,-604.39 1360.62,-608.13 1360.78,-614.6 1372,-619.39 1400.41,-631.53 1438.36,-609.09 1447.14,-627.33"/>
<polygon fill="#e7298a" stroke="#e7298a" points="1443.74,-628.2 1449,-637.39 1450.62,-626.92 1443.74,-628.2"/>
<text text-anchor="middle" x="1408.5" y="-608.19" font-family="Times,serif" font-size="14.00" fill="#e7298a">16379/tcp</text>
</g>
<!-- n9&#45;&gt;n8 -->
<g id="edge77" class="edge">
<title>n9:out&#45;&gt;n8:16379</title>
<path fill="none" stroke="#e7298a" d="M1262,-691.39C1262,-719.79 1490.23,-699.88 1517,-709.39 1606.4,-741.15 1764.74,-852.23 1689.37,-860.86"/>
<polygon fill="#e7298a" stroke="#e7298a" points="1688.81,-857.38 1679,-861.39 1689.17,-864.37 1688.81,-857.38"/>
<text text-anchor="middle" x="1703.5" y="-765.69" font-family="Times,serif" font-size="14.00" fill="#e7298a">16379/tcp</text>
</g>
<!-- n9&#45;&gt;n2 -->
<g id="edge78" class="edge">
<title>n9:out&#45;&gt;n2:16379</title>
<path fill="none" stroke="#e7298a" d="M1262,-691.39C1262,-731.21 1141.99,-753.25 1091.03,-756.08"/>
<polygon fill="#e7298a" stroke="#e7298a" points="1090.89,-752.58 1081,-756.39 1091.1,-759.58 1090.89,-752.58"/>
<text text-anchor="middle" x="1288.5" y="-713.19" font-family="Times,serif" font-size="14.00" fill="#e7298a">16379/tcp</text>
</g>
<!-- n9&#45;&gt;n1 -->
<g id="edge70" class="edge">
<title>n9:out&#45;&gt;n1:6379</title>
<path fill="none" stroke="#7570b3" d="M1262,-637.39C1262,-614.19 1448.01,-626.78 1470,-619.39 1487.18,-613.61 1591.14,-539.04 1608,-532.39 1647.57,-516.78 1661.96,-528.75 1702,-514.39 1702,-514.39 1955,-376.39 1955,-376.39 1984.62,-348.2 2003,-338.78 2003,-297.89 2003,-297.89 2003,-297.89 2003,-138.39 2003,-65.55 916.67,-48.84 658.26,-48.4"/>
<polygon fill="#7570b3" stroke="#7570b3" points="658,-44.9 648,-48.39 658,-51.9 658,-44.9"/>
<text text-anchor="middle" x="2031" y="-345.69" font-family="Times,serif" font-size="14.00" fill="#7570b3">6379/tcp</text>
</g>
<!-- n9&#45;&gt;n1 -->
<g id="edge71" class="edge">
<title>n9:out&#45;&gt;n1:16379</title>
<path fill="none" stroke="#e7298a" d="M1119,-664.39C1106.71,-664.39 1122.35,-645.37 1113,-637.39 1087.5,-615.65 844.64,-626.94 812,-619.39 795.11,-615.49 792.79,-608.69 776,-604.39 702.82,-585.67 677.86,-612.55 607,-586.39 454.74,-530.19 413.16,-462.14 375,-304.39 355.51,-223.82 335.3,-247.65 468,-112.39 478.66,-101.53 513.59,-84.28 528,-79.39 553.23,-70.84 629.14,-81.59 646.5,-61.39 662.14,-43.19 663.28,-24.55 646.5,-7.39 641.69,-2.47 622.06,0.87 610.54,-0.87"/>
<polygon fill="#e7298a" stroke="#e7298a" points="608.5,1.98 602,-6.39 612.3,-3.9 608.5,1.98"/>
<text text-anchor="middle" x="431.5" y="-345.69" font-family="Times,serif" font-size="14.00" fill="#e7298a">16379/tcp</text>
</g>
<!-- n9&#45;&gt;n3 -->
<g id="edge72" class="edge">
<title>n9:out&#45;&gt;n3:16379</title>
<path fill="none" stroke="#e7298a" d="M1262,-637.39C1262,-616.96 1426.55,-628.18 1445,-619.39 1494.08,-596.01 1483.14,-558.18 1531,-532.39 1566.91,-513.04 1582.95,-529.1 1621,-514.39 1645.17,-505.05 1796.69,-403.36 1821,-394.39 1866.24,-377.69 1896.86,-413.21 1928,-376.39 2008.9,-280.74 1915.84,-134.36 1792.12,-126.7"/>
<polygon fill="#e7298a" stroke="#e7298a" points="1792.1,-123.2 1782,-126.39 1791.89,-130.2 1792.1,-123.2"/>
<text text-anchor="middle" x="1857.5" y="-398.19" font-family="Times,serif" font-size="14.00" fill="#e7298a">16379/tcp</text>
</g>
<!-- n9&#45;&gt;n4 -->
<g id="edge73" class="edge">
<title>n9:out&#45;&gt;n4:16379</title>
<path fill="none" stroke="#e7298a" d="M1119,-664.39C1106.71,-664.39 1122,-645.76 1113,-637.39 999.19,-531.52 904.47,-658.95 767,-586.39 693.79,-547.75 629.4,-499.53 670,-427.39 691.42,-389.33 719.57,-403.26 754,-376.39 797.36,-342.55 791.96,-312.22 842,-289.39 889.75,-267.61 1041.83,-309.89 1077.5,-271.39 1081.58,-266.99 1081.69,-221.68 1077.5,-217.39 1072.69,-212.47 1053.06,-209.13 1041.54,-210.87"/>
<polygon fill="#e7298a" stroke="#e7298a" points="1039.5,-208.02 1033,-216.39 1043.3,-213.9 1039.5,-208.02"/>
<text text-anchor="middle" x="706.5" y="-450.69" font-family="Times,serif" font-size="14.00" fill="#e7298a">16379/tcp</text>
</g>
<!-- n9&#45;&gt;n5 -->
<g id="edge74" class="edge">
<title>n9:out&#45;&gt;n5:16379</title>
<path fill="none" stroke="#e7298a" d="M1262,-637.39C1262,-617.54 1326.14,-610.57 1345,-604.39 1375.12,-594.52 1385.16,-599.53 1414,-586.39 1452.7,-568.76 1457.19,-555.34 1493,-532.39 1517,-517.01 1522.46,-512.06 1548,-499.39 1567.3,-489.82 1574.8,-492.92 1593,-481.39 1659.01,-439.58 1777.22,-345.75 1717.18,-337.04"/>
<polygon fill="#e7298a" stroke="#e7298a" points="1717.2,-333.54 1707,-336.39 1716.76,-340.52 1717.2,-333.54"/>
<text text-anchor="middle" x="1584.5" y="-503.19" font-family="Times,serif" font-size="14.00" fill="#e7298a">16379/tcp</text>
</g>
<!-- n9&#45;&gt;n6 -->
<g id="edge75" class="edge">
<title>n9:out&#45;&gt;n6:16379</title>
<path fill="none" stroke="#e7298a" d="M1262,-637.39C1262,-621.46 1265.38,-616.26 1276,-604.39 1286.88,-592.23 1299.04,-600.03 1308,-586.39 1341.5,-535.41 1380.02,-451.58 1329.99,-442.24"/>
<polygon fill="#e7298a" stroke="#e7298a" points="1330.26,-438.75 1320,-441.39 1329.67,-445.73 1330.26,-438.75"/>
<text text-anchor="middle" x="1373.5" y="-555.69" font-family="Times,serif" font-size="14.00" fill="#e7298a">16379/tcp</text>
</g>
<!-- n9&#45;&gt;n7 -->
<g id="edge76" class="edge">
<title>n9:out&#45;&gt;n7:16379</title>
<path fill="none" stroke="#e7298a" d="M1119,-664.39C1106.99,-664.39 1114.55,-648.09 1120,-637.39 1136.67,-604.67 1168.53,-619.21 1185,-586.39 1190.8,-574.84 1198.09,-558.96 1194.82,-551.14"/>
<polygon fill="#e7298a" stroke="#e7298a" points="1196.46,-548.05 1186,-546.39 1193.15,-554.21 1196.46,-548.05"/>
<text text-anchor="middle" x="1205.5" y="-608.19" font-family="Times,serif" font-size="14.00" fill="#e7298a">16379/tcp</text>
</g>
</g>
</svg>
