<?xml version="1.0" encoding="UTF-8" standalone="no"?>
<!DOCTYPE svg PUBLIC "-//W3C//DTD SVG 1.1//EN"
 "http://www.w3.org/Graphics/SVG/1.1/DTD/svg11.dtd">
<!-- Generated by graphviz version 2.43.0 (0)
 -->
<!-- Title: %3 Pages: 1 -->
<svg width="2325pt" height="909pt"
 viewBox="0.00 0.00 2324.65 909.39" xmlns="http://www.w3.org/2000/svg" xmlns:xlink="http://www.w3.org/1999/xlink">
<g id="graph0" class="graph" transform="scale(1 1) rotate(0) translate(4 905.39)">
<title>%3</title>
<polygon fill="white" stroke="transparent" points="-4,4 -4,-905.39 2320.65,-905.39 2320.65,4 -4,4"/>
<!-- n6 -->
<g id="node1" class="node">
<title>n6</title>
<polygon fill="none" stroke="black" points="308.15,-847.89 308.15,-900.89 681.15,-900.89 681.15,-847.89 308.15,-847.89"/>
<text text-anchor="middle" x="450.15" y="-885.69" font-family="Times,serif" font-size="14.00">redis&#45;cluster&#45;compose&#45;redis_node_4&#45;1</text>
<text text-anchor="middle" x="450.15" y="-870.69" font-family="Times,serif" font-size="14.00">image: redis:7&#45;alpine</text>
<text text-anchor="middle" x="450.15" y="-855.69" font-family="Times,serif" font-size="14.00">net: redis&#45;cluster&#45;compose_default</text>
<polyline fill="none" stroke="black" points="592.15,-847.89 592.15,-900.89 "/>
<text text-anchor="middle" x="636.65" y="-884.19" font-family="Times,serif" font-size="14.00">6379/tcp</text>
<polyline fill="none" stroke="black" points="592.15,-874.89 681.15,-874.89 "/>
<text text-anchor="middle" x="636.65" y="-857.69" font-family="Times,serif" font-size="14.00">16379/tcp</text>
</g>
<!-- n5 -->
<g id="node2" class="node">
<title>n5</title>
<polygon fill="none" stroke="black" points="643.15,-742.89 643.15,-795.89 1016.15,-795.89 1016.15,-742.89 643.15,-742.89"/>
<text text-anchor="middle" x="785.15" y="-780.69" font-family="Times,serif" font-size="14.00">redis&#45;cluster&#45;compose&#45;redis_node_8&#45;1</text>
<text text-anchor="middle" x="785.15" y="-765.69" font-family="Times,serif" font-size="14.00">image: redis:7&#45;alpine</text>
<text text-anchor="middle" x="785.15" y="-750.69" font-family="Times,serif" font-size="14.00">net: redis&#45;cluster&#45;compose_default</text>
<polyline fill="none" stroke="black" points="927.15,-742.89 927.15,-795.89 "/>
<text text-anchor="middle" x="971.65" y="-779.19" font-family="Times,serif" font-size="14.00">6379/tcp</text>
<polyline fill="none" stroke="black" points="927.15,-769.89 1016.15,-769.89 "/>
<text text-anchor="middle" x="971.65" y="-752.69" font-family="Times,serif" font-size="14.00">16379/tcp</text>
</g>
<!-- n6&#45;&gt;n5 -->
<g id="edge6" class="edge">
<title>n6:out&#45;&gt;n5:16379</title>
<path fill="none" stroke="#d95f02" d="M306.65,-874.39C294.64,-874.39 301.92,-857.94 307.65,-847.39 309.17,-844.59 351.62,-815.39 354.65,-814.39 389.55,-802.84 990.51,-822.74 1016.15,-796.39 1032.89,-779.19 1032.93,-759.55 1016.15,-742.39 1011.34,-737.47 991.71,-734.13 980.19,-735.87"/>
<polygon fill="#d95f02" stroke="#d95f02" points="978.15,-733.02 971.65,-741.39 981.95,-738.9 978.15,-733.02"/>
<text text-anchor="middle" x="391.15" y="-818.19" font-family="Times,serif" font-size="14.00" fill="#d95f02">16379/tcp</text>
</g>
<!-- n9 -->
<g id="node3" class="node">
<title>n9</title>
<polygon fill="none" stroke="black" points="1425.15,-7.89 1425.15,-60.89 1798.15,-60.89 1798.15,-7.89 1425.15,-7.89"/>
<text text-anchor="middle" x="1567.15" y="-45.69" font-family="Times,serif" font-size="14.00">redis&#45;cluster&#45;compose&#45;redis_node_2&#45;1</text>
<text text-anchor="middle" x="1567.15" y="-30.69" font-family="Times,serif" font-size="14.00">image: redis:7&#45;alpine</text>
<text text-anchor="middle" x="1567.15" y="-15.69" font-family="Times,serif" font-size="14.00">net: redis&#45;cluster&#45;compose_default</text>
<polyline fill="none" stroke="black" points="1709.15,-7.89 1709.15,-60.89 "/>
<text text-anchor="middle" x="1753.65" y="-44.19" font-family="Times,serif" font-size="14.00">6379/tcp</text>
<polyline fill="none" stroke="black" points="1709.15,-34.89 1798.15,-34.89 "/>
<text text-anchor="middle" x="1753.65" y="-17.69" font-family="Times,serif" font-size="14.00">16379/tcp</text>
</g>
<!-- n6&#45;&gt;n9 -->
<g id="edge8" class="edge">
<title>n6:out&#45;&gt;n9:16379</title>
<path fill="none" stroke="#666666" d="M2026.65,-820.89C2096.91,-743.91 2214.29,-506.68 2251.65,-409.39 2261.31,-384.23 2265.65,-377.34 2265.65,-350.39 2265.65,-350.39 2265.65,-350.39 2265.65,-138.39 2265.65,-23.66 2078.63,-21.43 1810.44,-21.39"/>
<polygon fill="#666666" stroke="#666666" points="1810.05,-17.89 1800.05,-21.39 1810.05,-24.89 1810.05,-17.89"/>
<text text-anchor="middle" x="2280.15" y="-450.69" font-family="Times,serif" font-size="14.00" fill="#666666">16379/tcp</text>
</g>
<!-- n2 -->
<g id="node4" class="node">
<title>n2</title>
<polygon fill="none" stroke="black" points="437.15,-112.89 437.15,-165.89 810.15,-165.89 810.15,-112.89 437.15,-112.89"/>
<text text-anchor="middle" x="579.15" y="-150.69" font-family="Times,serif" font-size="14.00">redis&#45;cluster&#45;compose&#45;redis_node_3&#45;1</text>
<text text-anchor="middle" x="579.15" y="-135.69" font-family="Times,serif" font-size="14.00">image: redis:7&#45;alpine</text>
<text text-anchor="middle" x="579.15" y="-120.69" font-family="Times,serif" font-size="14.00">net: redis&#45;cluster&#45;compose_default</text>
<polyline fill="none" stroke="black" points="721.15,-112.89 721.15,-165.89 "/>
<text text-anchor="middle" x="765.65" y="-149.19" font-family="Times,serif" font-size="14.00">6379/tcp</text>
<polyline fill="none" stroke="black" points="721.15,-139.89 810.15,-139.89 "/>
<text text-anchor="middle" x="765.65" y="-122.69" font-family="Times,serif" font-size="14.00">16379/tcp</text>
</g>
<!-- n6&#45;&gt;n2 -->
<g id="edge3" class="edge">
<title>n6:out&#45;&gt;n2:6379</title>
<path fill="none" stroke="#1b9e77" d="M1985.65,-768.39C1975.97,-680.2 2049.01,-673.13 2067.65,-586.39 2086.15,-500.29 2072.02,-464.45 2018.65,-394.39 1999.17,-368.81 1781.96,-226.95 1756.65,-217.39 1682.76,-189.5 1656.85,-213.66 1580.65,-192.89"/>
<text text-anchor="middle" x="2106.65" y="-503.19" font-family="Times,serif" font-size="14.00" fill="#1b9e77">6379/tcp</text>
</g>
<!-- n6&#45;&gt;n2 -->
<g id="edge5" class="edge">
<title>n6:out&#45;&gt;n2:16379</title>
<path fill="none" stroke="#666666" d="M306.65,-874.39C294.64,-874.39 304.54,-858.99 307.65,-847.39 310.85,-835.49 323.36,-834.92 320.65,-822.89"/>
<path fill="none" stroke="#666666" d="M320.65,-820.89C315.91,-799.81 295.8,-809.54 278.65,-796.39 226.04,-756.03 207.21,-747.98 172.65,-691.39 86.85,-550.9 45.92,-457.01 140.65,-322.39 187.27,-256.14 214.31,-247.17 289.65,-217.39 388.15,-178.46 420.28,-195.08 525.65,-184.39 557.16,-181.19 788.47,-189.48 810.15,-166.39 826.58,-148.89 826.93,-129.55 810.15,-112.39 805.34,-107.47 785.71,-104.13 774.19,-105.87"/>
<polygon fill="#666666" stroke="#666666" points="772.15,-103.02 765.65,-111.39 775.95,-108.9 772.15,-103.02"/>
<text text-anchor="middle" x="127.15" y="-503.19" font-family="Times,serif" font-size="14.00" fill="#666666">16379/tcp</text>
</g>
<!-- n1 -->
<g id="node5" class="node">
<title>n1</title>
<polygon fill="none" stroke="black" points="1141.15,-217.89 1141.15,-270.89 1514.15,-270.89 1514.15,-217.89 1141.15,-217.89"/>
<text text-anchor="middle" x="1283.15" y="-255.69" font-family="Times,serif" font-size="14.00">redis&#45;cluster&#45;compose&#45;redis_node_7&#45;1</text>
<text text-anchor="middle" x="1283.15" y="-240.69" font-family="Times,serif" font-size="14.00">image: redis:7&#45;alpine</text>
<text text-anchor="middle" x="1283.15" y="-225.69" font-family="Times,serif" font-size="14.00">net: redis&#45;cluster&#45;compose_default</text>
<polyline fill="none" stroke="black" points="1425.15,-217.89 1425.15,-270.89 "/>
<text text-anchor="middle" x="1469.65" y="-254.19" font-family="Times,serif" font-size="14.00">6379/tcp</text>
<polyline fill="none" stroke="black" points="1425.15,-244.89 1514.15,-244.89 "/>
<text text-anchor="middle" x="1469.65" y="-227.69" font-family="Times,serif" font-size="14.00">16379/tcp</text>
</g>
<!-- n6&#45;&gt;n1 -->
<g id="edge1" class="edge">
<title>n6:out&#45;&gt;n1:16379</title>
<path fill="none" stroke="#7570b3" d="M449.65,-847.39C449.65,-825.49 2011.89,-839.07 2026.65,-822.89"/>
<path fill="none" stroke="#7570b3" d="M2026.65,-820.89C2036.4,-810.21 1986.54,-784.82 1985.65,-770.39"/>
<path fill="none" stroke="#7570b3" d="M1985.65,-768.39C1980.16,-678.9 1919.96,-673.48 1898.65,-586.39 1870.75,-472.35 1958.16,-417.73 1889.65,-322.39 1871.88,-297.66 1849.94,-316.27 1825.65,-297.89"/>
<text text-anchor="middle" x="1935.15" y="-555.69" font-family="Times,serif" font-size="14.00" fill="#7570b3">16379/tcp</text>
</g>
<!-- n4 -->
<g id="node6" class="node">
<title>n4</title>
<polygon fill="none" stroke="black" points="497.15,-322.89 497.15,-375.89 870.15,-375.89 870.15,-322.89 497.15,-322.89"/>
<text text-anchor="middle" x="639.15" y="-360.69" font-family="Times,serif" font-size="14.00">redis&#45;cluster&#45;compose&#45;redis_node_1&#45;1</text>
<text text-anchor="middle" x="639.15" y="-345.69" font-family="Times,serif" font-size="14.00">image: redis:7&#45;alpine</text>
<text text-anchor="middle" x="639.15" y="-330.69" font-family="Times,serif" font-size="14.00">net: redis&#45;cluster&#45;compose_default</text>
<polyline fill="none" stroke="black" points="781.15,-322.89 781.15,-375.89 "/>
<text text-anchor="middle" x="825.65" y="-359.19" font-family="Times,serif" font-size="14.00">6379/tcp</text>
<polyline fill="none" stroke="black" points="781.15,-349.89 870.15,-349.89 "/>
<text text-anchor="middle" x="825.65" y="-332.69" font-family="Times,serif" font-size="14.00">16379/tcp</text>
</g>
<!-- n6&#45;&gt;n4 -->
<g id="edge9" class="edge">
<title>n6:out&#45;&gt;n4:16379</title>
<path fill="none" stroke="#7570b3" d="M320.65,-820.89C280.76,-636.36 330.15,-541.37 480.65,-427.39 494.6,-416.83 500.16,-417.52 515.65,-409.39 528.15,-402.83 530.06,-398.2 543.65,-394.39 578.63,-384.58 845.18,-402.78 870.15,-376.39 886.65,-358.96 886.93,-339.55 870.15,-322.39 865.36,-317.5 845.89,-314.16 834.35,-315.85"/>
<polygon fill="#7570b3" stroke="#7570b3" points="832.53,-312.86 825.68,-320.94 836.07,-318.89 832.53,-312.86"/>
<text text-anchor="middle" x="363.15" y="-608.19" font-family="Times,serif" font-size="14.00" fill="#7570b3">16379/tcp</text>
</g>
<!-- n7 -->
<g id="node7" class="node">
<title>n7</title>
<polygon fill="none" stroke="black" points="1079.15,-427.89 1079.15,-480.89 1452.15,-480.89 1452.15,-427.89 1079.15,-427.89"/>
<text text-anchor="middle" x="1221.15" y="-465.69" font-family="Times,serif" font-size="14.00">redis&#45;cluster&#45;compose&#45;redis_node_9&#45;1</text>
<text text-anchor="middle" x="1221.15" y="-450.69" font-family="Times,serif" font-size="14.00">image: redis:7&#45;alpine</text>
<text text-anchor="middle" x="1221.15" y="-435.69" font-family="Times,serif" font-size="14.00">net: redis&#45;cluster&#45;compose_default</text>
<polyline fill="none" stroke="black" points="1363.15,-427.89 1363.15,-480.89 "/>
<text text-anchor="middle" x="1407.65" y="-464.19" font-family="Times,serif" font-size="14.00">6379/tcp</text>
<polyline fill="none" stroke="black" points="1363.15,-454.89 1452.15,-454.89 "/>
<text text-anchor="middle" x="1407.65" y="-437.69" font-family="Times,serif" font-size="14.00">16379/tcp</text>
</g>
<!-- n6&#45;&gt;n7 -->
<g id="edge4" class="edge">
<title>n6:out&#45;&gt;n7:16379</title>
<path fill="none" stroke="#1b9e77" d="M449.65,-847.39C449.65,-820.59 539.19,-818.61 565.65,-814.39 767.7,-782.17 821.62,-811.7 1025.65,-796.39 1314.61,-774.71 1390.27,-784.9 1673.65,-724.39 1720.66,-714.35 1748.32,-730.22 1776.65,-691.39 1814.44,-639.6 1759.02,-523.1 1728.65,-499.39 1693.48,-471.93 1571.41,-494.14 1528.65,-481.39 1495.98,-471.65 1491.96,-446.92 1463.73,-442.18"/>
<polygon fill="#1b9e77" stroke="#1b9e77" points="1463.89,-438.68 1453.65,-441.39 1463.35,-445.66 1463.89,-438.68"/>
<text text-anchor="middle" x="1825.15" y="-660.69" font-family="Times,serif" font-size="14.00" fill="#1b9e77">16379/tcp</text>
</g>
<!-- n8 -->
<g id="node8" class="node">
<title>n8</title>
<polygon fill="none" stroke="black" points="789.15,-532.89 789.15,-585.89 1162.15,-585.89 1162.15,-532.89 789.15,-532.89"/>
<text text-anchor="middle" x="931.15" y="-570.69" font-family="Times,serif" font-size="14.00">redis&#45;cluster&#45;compose&#45;redis_node_5&#45;1</text>
<text text-anchor="middle" x="931.15" y="-555.69" font-family="Times,serif" font-size="14.00">image: redis:7&#45;alpine</text>
<text text-anchor="middle" x="931.15" y="-540.69" font-family="Times,serif" font-size="14.00">net: redis&#45;cluster&#45;compose_default</text>
<polyline fill="none" stroke="black" points="1073.15,-532.89 1073.15,-585.89 "/>
<text text-anchor="middle" x="1117.65" y="-569.19" font-family="Times,serif" font-size="14.00">6379/tcp</text>
<polyline fill="none" stroke="black" points="1073.15,-559.89 1162.15,-559.89 "/>
<text text-anchor="middle" x="1117.65" y="-542.69" font-family="Times,serif" font-size="14.00">16379/tcp</text>
</g>
<!-- n6&#45;&gt;n8 -->
<g id="edge7" class="edge">
<title>n6:out&#45;&gt;n8:16379</title>
<path fill="none" stroke="#e6ab02" d="M1117.65,-610.89C1098.15,-599.51 1150.66,-605.83 1162.15,-586.39 1174.36,-565.73 1178.93,-549.55 1162.15,-532.39 1157.36,-527.5 1137.89,-524.16 1126.35,-525.85"/>
<polygon fill="#e6ab02" stroke="#e6ab02" points="1124.53,-522.86 1117.68,-530.94 1128.07,-528.89 1124.53,-522.86"/>
<path fill="none" stroke="#e6ab02" d="M320.65,-820.89C319.3,-814.17 328.01,-816.13 334.65,-814.39 434.7,-788.2 470.53,-834.55 566.65,-796.39 602.2,-782.28 598.13,-756.56 633.65,-742.39 726.01,-705.56 764.11,-760.76 856.65,-724.39 866.66,-720.46 866.11,-714.36 875.65,-709.39 900.35,-696.54 909.49,-700.92 935.65,-691.39 977.04,-676.31 1155.69,-635.1 1117.65,-612.89"/>
<text text-anchor="middle" x="912.15" y="-713.19" font-family="Times,serif" font-size="14.00" fill="#e6ab02">16379/tcp</text>
</g>
<!-- n3 -->
<g id="node9" class="node">
<title>n3</title>
<polygon fill="none" stroke="black" points="511.15,-637.89 511.15,-690.89 884.15,-690.89 884.15,-637.89 511.15,-637.89"/>
<text text-anchor="middle" x="653.15" y="-675.69" font-family="Times,serif" font-size="14.00">redis&#45;cluster&#45;compose&#45;redis_node_6&#45;1</text>
<text text-anchor="middle" x="653.15" y="-660.69" font-family="Times,serif" font-size="14.00">image: redis:7&#45;alpine</text>
<text text-anchor="middle" x="653.15" y="-645.69" font-family="Times,serif" font-size="14.00">net: redis&#45;cluster&#45;compose_default</text>
<polyline fill="none" stroke="black" points="795.15,-637.89 795.15,-690.89 "/>
<text text-anchor="middle" x="839.65" y="-674.19" font-family="Times,serif" font-size="14.00">6379/tcp</text>
<polyline fill="none" stroke="black" points="795.15,-664.89 884.15,-664.89 "/>
<text text-anchor="middle" x="839.65" y="-647.69" font-family="Times,serif" font-size="14.00">16379/tcp</text>
</g>
<!-- n6&#45;&gt;n3 -->
<g id="edge2" class="edge">
<title>n6:out&#45;&gt;n3:16379</title>
<path fill="none" stroke="#7570b3" d="M320.65,-820.89C319.49,-815.53 375.92,-745.17 380.65,-742.39 468.94,-690.54 506.82,-720.07 608.65,-709.39 639.16,-706.19 863.18,-713.78 884.15,-691.39 900.56,-673.88 900.93,-654.55 884.15,-637.39 879.36,-632.5 859.89,-629.16 848.35,-630.85"/>
<polygon fill="#7570b3" stroke="#7570b3" points="846.53,-627.86 839.68,-635.94 850.07,-633.89 846.53,-627.86"/>
<text text-anchor="middle" x="417.15" y="-765.69" font-family="Times,serif" font-size="14.00" fill="#7570b3">16379/tcp</text>
</g>
<!-- n5&#45;&gt;n6 -->
<g id="edge18" class="edge">
<title>n5:out&#45;&gt;n6:16379</title>
<path fill="none" stroke="#d95f02" d="M641.65,-769.39C629.64,-769.39 638.59,-785.09 642.65,-796.39 652.3,-823.24 671.54,-820.71 681.65,-847.39 682.1,-848.58 682.67,-849.86 683.23,-851.15"/>
<polygon fill="#d95f02" stroke="#d95f02" points="679.72,-851.21 682.65,-861.39 686.71,-851.6 679.72,-851.21"/>
<text text-anchor="middle" x="707.15" y="-818.19" font-family="Times,serif" font-size="14.00" fill="#d95f02">16379/tcp</text>
</g>
<!-- n5&#45;&gt;n9 -->
<g id="edge11" class="edge">
<title>n5:out&#45;&gt;n9:6379</title>
<path fill="none" stroke="#1b9e77" d="M1503.65,-715.89C1540.24,-680.43 1570.13,-714.28 1615.65,-691.39 1648.3,-674.97 1644.33,-652.4 1677.65,-637.39 1837.03,-565.59 1910.06,-662.03 2067.65,-586.39 2127.72,-557.56 2146.83,-541.93 2174.65,-481.39 2186.86,-454.83 2186.65,-379.62 2186.65,-350.39 2186.65,-350.39 2186.65,-350.39 2186.65,-138.39 2186.65,-53.28 1909.12,-48.63 1810.01,-48.4"/>
<polygon fill="#1b9e77" stroke="#1b9e77" points="1809.91,-44.9 1799.91,-48.39 1809.91,-51.9 1809.91,-44.9"/>
<text text-anchor="middle" x="2217.65" y="-398.19" font-family="Times,serif" font-size="14.00" fill="#1b9e77">6379/tcp</text>
</g>
<!-- n5&#45;&gt;n9 -->
<g id="edge14" class="edge">
<title>n5:out&#45;&gt;n9:16379</title>
<path fill="none" stroke="#666666" d="M1724.65,-558.39C1737.14,-524.13 1751.17,-519.39 1781.65,-499.39 1876.9,-436.89 1956.76,-503.02 2021.65,-409.39 2041.69,-380.48 2140.79,-420.03 1936.65,-217.39 1918.52,-199.39 1876.59,-217.13 1884.65,-192.89"/>
<text text-anchor="middle" x="2084.15" y="-398.19" font-family="Times,serif" font-size="14.00" fill="#666666">16379/tcp</text>
</g>
<!-- n5&#45;&gt;n2 -->
<g id="edge16" class="edge">
<title>n5:out&#45;&gt;n2:16379</title>
<path fill="none" stroke="#d95f02" d="M641.65,-769.39C606.22,-769.39 601.36,-749.51 566.65,-742.39 500.58,-728.83 323.73,-755.06 263.65,-724.39 205.21,-694.56 165.53,-668.88 177.65,-604.39 212.81,-417.41 201.92,-322.29 360.65,-217.39 396.03,-194.01 509.81,-210.81 550.65,-199.39 565.39,-195.27 566.88,-188.39 581.65,-184.39 606.23,-177.73 792.86,-185.09 810.15,-166.39 826.44,-148.77 826.93,-129.55 810.15,-112.39 805.34,-107.47 785.71,-104.13 774.19,-105.87"/>
<polygon fill="#d95f02" stroke="#d95f02" points="772.15,-103.02 765.65,-111.39 775.95,-108.9 772.15,-103.02"/>
<text text-anchor="middle" x="246.15" y="-450.69" font-family="Times,serif" font-size="14.00" fill="#d95f02">16379/tcp</text>
</g>
<!-- n5&#45;&gt;n1 -->
<g id="edge17" class="edge">
<title>n5:out&#45;&gt;n1:16379</title>
<path fill="none" stroke="#a6761d" d="M1825.65,-295.89C1819.16,-288.03 1813.62,-291.55 1803.65,-289.39 1747.07,-277.16 1731.47,-282.47 1674.65,-271.39 1606.75,-258.15 1590.15,-234 1526.3,-231.59"/>
<polygon fill="#a6761d" stroke="#a6761d" points="1526.14,-228.08 1516.08,-231.39 1526.01,-235.08 1526.14,-228.08"/>
<path fill="none" stroke="#a6761d" d="M1503.65,-715.89C1523.16,-694.7 1538.41,-705.27 1563.65,-691.39 1599.96,-671.43 1605.14,-660.33 1639.65,-637.39 1652.28,-628.99 1656.89,-628.97 1668.65,-619.39 1696.68,-596.56 1729.19,-596.26 1724.65,-560.39"/>
<path fill="none" stroke="#a6761d" d="M1724.65,-558.39C1732.06,-526.53 1661.19,-525.68 1680.65,-499.39 1696.97,-477.36 1720.13,-500.64 1739.65,-481.39 1792.5,-429.29 1746.62,-382.13 1790.65,-322.39 1801.92,-307.11 1837.74,-312.53 1825.65,-297.89"/>
<text text-anchor="middle" x="1717.15" y="-503.19" font-family="Times,serif" font-size="14.00" fill="#a6761d">16379/tcp</text>
</g>
<!-- n5&#45;&gt;n4 -->
<g id="edge13" class="edge">
<title>n5:out&#45;&gt;n4:16379</title>
<path fill="none" stroke="#a6761d" d="M641.65,-769.39C606.22,-769.39 600.86,-751.62 566.65,-742.39 523.9,-730.85 503.74,-751.41 468.65,-724.39 432.96,-696.91 382.34,-572.07 403.65,-532.39 423.07,-496.23 446.8,-504.61 480.65,-481.39 546.75,-436.04 560.6,-412.67 638.65,-394.39 663.77,-388.51 852.63,-395.33 870.15,-376.39 886.45,-358.77 886.93,-339.55 870.15,-322.39 865.34,-317.47 845.71,-314.13 834.19,-315.87"/>
<polygon fill="#a6761d" stroke="#a6761d" points="832.15,-313.02 825.65,-321.39 835.95,-318.9 832.15,-313.02"/>
<text text-anchor="middle" x="440.15" y="-555.69" font-family="Times,serif" font-size="14.00" fill="#a6761d">16379/tcp</text>
</g>
<!-- n5&#45;&gt;n7 -->
<g id="edge15" class="edge">
<title>n5:out&#45;&gt;n7:16379</title>
<path fill="none" stroke="#1b9e77" d="M1503.65,-715.89C1522.48,-694.64 1460.42,-715.01 1444.65,-691.39 1431.33,-671.43 1428.76,-655.38 1444.65,-637.39 1488.41,-587.86 1610.98,-666.95 1589.65,-604.39 1560.37,-518.49 1548.88,-447.02 1464.07,-441.71"/>
<polygon fill="#1b9e77" stroke="#1b9e77" points="1464.03,-438.2 1453.93,-441.39 1463.81,-445.2 1464.03,-438.2"/>
<text text-anchor="middle" x="1628.15" y="-608.19" font-family="Times,serif" font-size="14.00" fill="#1b9e77">16379/tcp</text>
</g>
<!-- n5&#45;&gt;n8 -->
<g id="edge12" class="edge">
<title>n5:out&#45;&gt;n8:16379</title>
<path fill="none" stroke="#e6ab02" d="M784.65,-742.39C784.65,-702.42 1490.86,-755.76 1503.65,-717.89"/>
<path fill="none" stroke="#e6ab02" d="M1503.65,-715.89C1515.16,-681.81 1378.56,-700.05 1343.65,-691.39 1240.45,-665.79 1141.15,-716.59 1117.65,-612.89"/>
<text text-anchor="middle" x="1380.15" y="-660.69" font-family="Times,serif" font-size="14.00" fill="#e6ab02">16379/tcp</text>
</g>
<!-- n5&#45;&gt;n3 -->
<g id="edge10" class="edge">
<title>n5:out&#45;&gt;n3:16379</title>
<path fill="none" stroke="#a6761d" d="M784.65,-742.39C784.65,-727.72 774.23,-720.64 783.65,-709.39 812.77,-674.59 855.03,-726.19 884.15,-691.39 899.55,-672.98 900.93,-654.55 884.15,-637.39 879.34,-632.47 859.71,-629.13 848.19,-630.87"/>
<polygon fill="#a6761d" stroke="#a6761d" points="846.15,-628.02 839.65,-636.39 849.95,-633.9 846.15,-628.02"/>
<text text-anchor="middle" x="820.15" y="-713.19" font-family="Times,serif" font-size="14.00" fill="#a6761d">16379/tcp</text>
</g>
<!-- n9&#45;&gt;n6 -->
<g id="edge24" class="edge">
<title>n9:out&#45;&gt;n6:16379</title>
<path fill="none" stroke="#666666" d="M1566.65,-61.39C1566.65,-83.48 1743.55,-72.86 1764.65,-79.39 1793.35,-88.28 1802.28,-91.27 1823.65,-112.39 1855.37,-143.74 1847.73,-163.1 1873.65,-199.39 1886.01,-216.69 1920.61,-257.44 1936.65,-271.39 2012,-336.9 2069.88,-310.9 2124.65,-394.39 2150.62,-433.98 2138.64,-452.21 2142.65,-499.39 2154.89,-643.21 2163.92,-715.21 2064.96,-813.75"/>
<polygon fill="#666666" stroke="#666666" points="2062.36,-811.4 2057.65,-820.89 2067.25,-816.41 2062.36,-811.4"/>
<text text-anchor="middle" x="2178.15" y="-450.69" font-family="Times,serif" font-size="14.00" fill="#666666">16379/tcp</text>
</g>
<!-- n9&#45;&gt;n5 -->
<g id="edge23" class="edge">
<title>n9:out&#45;&gt;n5:16379</title>
<path fill="none" stroke="#666666" d="M1605.65,-87.89C1625.48,-124.81 1757.72,-89.23 1792.65,-112.39 1803.92,-119.86 1911.56,-309.5 1915.65,-322.39 1954.64,-445.07 1950.31,-530.01 1933.65,-586.39 1917.89,-639.71 1912.84,-661.99 1865.65,-691.39 1787.4,-740.15 1745.47,-682.19 1659.65,-715.89"/>
<text text-anchor="middle" x="1973.15" y="-398.19" font-family="Times,serif" font-size="14.00" fill="#666666">16379/tcp</text>
</g>
<!-- n9&#45;&gt;n2 -->
<g id="edge20" class="edge">
<title>n9:out&#45;&gt;n2:16379</title>
<path fill="none" stroke="#e6ab02" d="M1423.65,-34.39C1152.09,-34.39 1088.31,-124.07 822.02,-126.35"/>
<polygon fill="#e6ab02" stroke="#e6ab02" points="821.64,-122.85 811.65,-126.39 821.67,-129.85 821.64,-122.85"/>
<text text-anchor="middle" x="1154.15" y="-83.19" font-family="Times,serif" font-size="14.00" fill="#e6ab02">16379/tcp</text>
</g>
<!-- n9&#45;&gt;n1 -->
<g id="edge25" class="edge">
<title>n9:out&#45;&gt;n1:16379</title>
<path fill="none" stroke="#66a61e" d="M1605.65,-87.89C1617.36,-109.95 1607.9,-180.43 1591.65,-199.39 1572.7,-221.5 1553.47,-202.16 1528.65,-217.39 1521.41,-221.83 1524.14,-231.39 1515.65,-231.39"/>
<path fill="none" stroke="#66a61e" d="M1566.65,-61.39C1566.65,-78.02 1586.06,-71.86 1598.49,-78.67"/>
<polygon fill="#66a61e" stroke="#66a61e" points="1596.12,-81.25 1605.65,-85.89 1601.09,-76.33 1596.12,-81.25"/>
<text text-anchor="middle" x="1647.15" y="-135.69" font-family="Times,serif" font-size="14.00" fill="#66a61e">16379/tcp</text>
</g>
<!-- n9&#45;&gt;n4 -->
<g id="edge19" class="edge">
<title>n9:out&#45;&gt;n4:16379</title>
<path fill="none" stroke="#1b9e77" d="M539.65,-297.89C554.96,-303.38 559.52,-302.36 575.65,-304.39 589.47,-306.13 825.65,-308.47 825.65,-322.39"/>
<path fill="none" stroke="#1b9e77" d="M190.65,-140.39C196.76,-165.9 176.12,-178.26 191.65,-199.39 286.69,-328.73 390.43,-236.77 539.65,-295.89"/>
<text text-anchor="middle" x="228.15" y="-188.19" font-family="Times,serif" font-size="14.00" fill="#1b9e77">16379/tcp</text>
</g>
<!-- n9&#45;&gt;n7 -->
<g id="edge21" class="edge">
<title>n9:out&#45;&gt;n7:16379</title>
<path fill="none" stroke="#a6761d" d="M1163.65,-402.89C1205.28,-438.06 1407.65,-372.9 1407.65,-427.39"/>
<path fill="none" stroke="#a6761d" d="M190.65,-140.39C191.56,-144.16 433.95,-270.21 437.65,-271.39 464.34,-279.92 659.76,-301.71 687.65,-304.39 753.25,-310.71 921.51,-300.46 983.65,-322.39 1022.73,-336.18 1021.61,-359.97 1059.65,-376.39 1097.1,-392.56 1110.88,-381.71 1149.65,-394.39 1156.17,-396.52 1158.65,-396.19 1163.65,-400.89"/>
<text text-anchor="middle" x="474.15" y="-240.69" font-family="Times,serif" font-size="14.00" fill="#a6761d">16379/tcp</text>
</g>
<!-- n9&#45;&gt;n8 -->
<g id="edge22" class="edge">
<title>n9:out&#45;&gt;n8:16379</title>
<path fill="none" stroke="#e6ab02" d="M157.65,-192.89C134.9,-226.59 178.1,-240.59 204.65,-271.39 267.73,-344.59 291.82,-356.44 372.65,-409.39 431.51,-447.95 448.54,-454.7 513.65,-481.39 538.23,-491.47 546.17,-489.07 570.65,-499.39 583.66,-504.87 585.02,-510.72 598.65,-514.39 626.51,-521.9 1117.65,-503.54 1117.65,-532.39"/>
<text text-anchor="middle" x="270.15" y="-293.19" font-family="Times,serif" font-size="14.00" fill="#e6ab02">16379/tcp</text>
</g>
<!-- n9&#45;&gt;n3 -->
<g id="edge26" class="edge">
<title>n9:out&#45;&gt;n3:16379</title>
<path fill="none" stroke="#1b9e77" d="M157.65,-192.89C150.43,-205.45 138.34,-333.62 147.65,-376.39 158.57,-426.53 155.57,-449.35 195.65,-481.39 281.84,-550.3 348.07,-469.37 438.65,-532.39 461.93,-548.59 449.23,-570.39 472.65,-586.39 536.93,-630.29 567.58,-608.47 644.65,-619.39 666.19,-622.44 839.65,-615.63 839.65,-637.39"/>
<path fill="none" stroke="#1b9e77" d="M1423.65,-34.39C-269.79,-34.39 131.23,-77.37 185.32,-129.89"/>
<polygon fill="#1b9e77" stroke="#1b9e77" points="182.38,-131.78 190.65,-138.39 188.31,-128.06 182.38,-131.78"/>
<path fill="none" stroke="#1b9e77" d="M190.65,-140.39C195.58,-166.75 171.02,-167.65 157.65,-190.89"/>
<text text-anchor="middle" x="184.15" y="-345.69" font-family="Times,serif" font-size="14.00" fill="#1b9e77">16379/tcp</text>
</g>
<!-- n2&#45;&gt;n6 -->
<g id="edge30" class="edge">
<title>n2:out&#45;&gt;n6:16379</title>
<path fill="none" stroke="#666666" d="M441.65,-822.89C451.52,-828.75 455.36,-827.34 466.65,-829.39 485.34,-832.79 636.65,-828.4 636.65,-847.39"/>
<path fill="none" stroke="#666666" d="M278.65,-192.89C272.13,-195.03 271.03,-196.87 264.65,-199.39 240.72,-208.82 231.53,-203.88 209.65,-217.39 74.67,-300.75 -36.64,-363.28 11.65,-514.39 64.19,-678.8 118.38,-732.35 278.65,-796.39 346.68,-823.57 377.83,-784.93 441.65,-820.89"/>
<path fill="none" stroke="#666666" d="M435.65,-139.39C365.8,-139.39 349.93,-165.3 288.49,-187.5"/>
<polygon fill="#666666" stroke="#666666" points="286.97,-184.33 278.65,-190.89 289.25,-190.94 286.97,-184.33"/>
<text text-anchor="middle" x="48.15" y="-503.19" font-family="Times,serif" font-size="14.00" fill="#666666">16379/tcp</text>
</g>
<!-- n2&#45;&gt;n5 -->
<g id="edge31" class="edge">
<title>n2:out&#45;&gt;n5:16379</title>
<path fill="none" stroke="#d95f02" d="M278.65,-192.89C248.39,-200.85 131.27,-397.31 122.65,-427.39 116.04,-450.46 110.4,-460.75 122.65,-481.39 131.18,-495.76 143.23,-488.22 155.65,-499.39 203.87,-542.76 189.59,-576.98 238.65,-619.39 318.2,-688.15 348.7,-698.66 450.65,-724.39 478.73,-731.48 971.65,-713.43 971.65,-742.39"/>
<text text-anchor="middle" x="159.15" y="-450.69" font-family="Times,serif" font-size="14.00" fill="#d95f02">16379/tcp</text>
</g>
<!-- n2&#45;&gt;n9 -->
<g id="edge32" class="edge">
<title>n2:out&#45;&gt;n9:16379</title>
<path fill="none" stroke="#e6ab02" d="M578.65,-112.39C578.65,-95.27 1177.55,-95.11 1194.65,-94.39 1203.04,-94.04 1792.38,-67.49 1798.15,-61.39 1814.65,-43.96 1814.93,-24.55 1798.15,-7.39 1793.34,-2.47 1773.71,0.87 1762.19,-0.87"/>
<polygon fill="#e6ab02" stroke="#e6ab02" points="1760.15,1.98 1753.65,-6.39 1763.95,-3.9 1760.15,1.98"/>
<text text-anchor="middle" x="1533.15" y="-83.19" font-family="Times,serif" font-size="14.00" fill="#e6ab02">16379/tcp</text>
</g>
<!-- n2&#45;&gt;n1 -->
<g id="edge29" class="edge">
<title>n2:out&#45;&gt;n1:16379</title>
<path fill="none" stroke="#66a61e" d="M578.65,-166.39C578.65,-196.44 608.66,-191.5 637.65,-199.39 658.54,-205.08 1370.03,-195.62 1460.27,-213.39"/>
<polygon fill="#66a61e" stroke="#66a61e" points="1459.08,-216.69 1469.65,-217.39 1461.83,-210.25 1459.08,-216.69"/>
<text text-anchor="middle" x="674.15" y="-188.19" font-family="Times,serif" font-size="14.00" fill="#66a61e">16379/tcp</text>
</g>
<!-- n2&#45;&gt;n4 -->
<g id="edge28" class="edge">
<title>n2:out&#45;&gt;n4:16379</title>
<path fill="none" stroke="#1b9e77" d="M539.65,-192.89C515.46,-231.76 497.28,-278.57 539.65,-295.89"/>
<text text-anchor="middle" x="562.15" y="-240.69" font-family="Times,serif" font-size="14.00" fill="#1b9e77">16379/tcp</text>
</g>
<!-- n2&#45;&gt;n7 -->
<g id="edge33" class="edge">
<title>n2:out&#45;&gt;n7:16379</title>
<path fill="none" stroke="#7570b3" d="M539.65,-192.89C522.68,-217.68 575.67,-204.17 602.65,-217.39 644.54,-237.92 648.27,-257.04 692.65,-271.39 782.2,-300.35 814.66,-258.76 903.65,-289.39 915.19,-293.36 915.21,-300.13 926.65,-304.39 982.56,-325.19 1004.49,-299.68 1059.65,-322.39 1073.04,-327.9 1153.74,-390.34 1163.65,-400.89"/>
<text text-anchor="middle" x="963.15" y="-293.19" font-family="Times,serif" font-size="14.00" fill="#7570b3">16379/tcp</text>
</g>
<!-- n2&#45;&gt;n8 -->
<g id="edge27" class="edge">
<title>n2:out&#45;&gt;n8:16379</title>
<path fill="none" stroke="#e7298a" d="M817.65,-507.89C833.61,-512.88 1117.65,-515.67 1117.65,-532.39"/>
<path fill="none" stroke="#e7298a" d="M539.65,-192.89C499.12,-241.91 439.6,-168.72 398.65,-217.39 352.93,-271.74 369.37,-321.68 414.65,-376.39 429.98,-394.91 444.02,-383.92 465.65,-394.39 530.91,-425.99 535.26,-457.33 603.65,-481.39 693.96,-513.16 726.51,-476.6 817.65,-505.89"/>
<path fill="none" stroke="#e7298a" d="M578.65,-166.39C578.65,-183.18 561.18,-178.3 547.71,-184.71"/>
<polygon fill="#e7298a" stroke="#e7298a" points="545.45,-182.02 539.65,-190.89 549.71,-187.58 545.45,-182.02"/>
<text text-anchor="middle" x="451.15" y="-345.69" font-family="Times,serif" font-size="14.00" fill="#e7298a">16379/tcp</text>
</g>
<!-- n2&#45;&gt;n3 -->
<g id="edge34" class="edge">
<title>n2:out&#45;&gt;n3:16379</title>
<path fill="none" stroke="#1b9e77" d="M675.65,-612.89C697.32,-642.7 839.65,-600.54 839.65,-637.39"/>
<path fill="none" stroke="#1b9e77" d="M278.65,-192.89C232.02,-205.4 271.3,-368.31 296.65,-409.39 348.55,-493.49 398.73,-483.64 492.65,-514.39 525.64,-525.19 539.14,-514.12 568.65,-532.39 595.21,-548.83 588.34,-568.08 613.65,-586.39 637.66,-603.75 658.64,-586.63 675.65,-610.89"/>
<text text-anchor="middle" x="333.15" y="-398.19" font-family="Times,serif" font-size="14.00" fill="#1b9e77">16379/tcp</text>
</g>
<!-- n1&#45;&gt;n6 -->
<g id="edge37" class="edge">
<title>n1:out&#45;&gt;n6:16379</title>
<path fill="none" stroke="#7570b3" d="M1646.65,-297.89C1675.98,-308.78 1685.47,-306.89 1712.65,-322.39 1744.83,-340.75 1952.19,-500.87 1971.65,-532.39 2028.08,-623.78 1945.6,-694.61 2023.65,-768.39"/>
<text text-anchor="middle" x="2027.15" y="-555.69" font-family="Times,serif" font-size="14.00" fill="#7570b3">16379/tcp</text>
</g>
<!-- n1&#45;&gt;n5 -->
<g id="edge40" class="edge">
<title>n1:out&#45;&gt;n5:16379</title>
<path fill="none" stroke="#a6761d" d="M1646.65,-297.89C1732.63,-330.87 1835.9,-620.89 1776.65,-691.39 1746.75,-726.97 1717.99,-695.49 1673.65,-709.39 1667.11,-711.44 1666.07,-713.48 1659.65,-715.89"/>
<path fill="none" stroke="#a6761d" d="M1282.65,-271.39C1282.65,-290.86 1613.75,-284.71 1632.65,-289.39 1634.73,-289.91 1636.25,-290.49 1637.56,-291.13"/>
<polygon fill="#a6761d" stroke="#a6761d" points="1636.17,-294.36 1646.65,-295.89 1639.41,-288.15 1636.17,-294.36"/>
<text text-anchor="middle" x="1812.15" y="-503.19" font-family="Times,serif" font-size="14.00" fill="#a6761d">16379/tcp</text>
</g>
<!-- n1&#45;&gt;n9 -->
<g id="edge36" class="edge">
<title>n1:out&#45;&gt;n9:16379</title>
<path fill="none" stroke="#66a61e" d="M1282.65,-217.39C1282.65,-98.92 1414.36,-147.03 1527.65,-112.39 1546.37,-106.67 1681.42,-83 1700.65,-79.39 1722.31,-75.33 1784.06,-78.33 1798.15,-61.39 1813.5,-42.94 1814.93,-24.55 1798.15,-7.39 1793.34,-2.47 1773.71,0.87 1762.19,-0.87"/>
<polygon fill="#66a61e" stroke="#66a61e" points="1760.15,1.98 1753.65,-6.39 1763.95,-3.9 1760.15,1.98"/>
<text text-anchor="middle" x="1564.15" y="-135.69" font-family="Times,serif" font-size="14.00" fill="#66a61e">16379/tcp</text>
</g>
<!-- n1&#45;&gt;n9 -->
<g id="edge39" class="edge">
<title>n1:out&#45;&gt;n9:6379</title>
<path fill="none" stroke="#e7298a" d="M1282.65,-217.39C1282.65,-199.25 1590.97,-203.44 1608.65,-199.39 1691.98,-180.28 1749.05,-152.62 1753.39,-71.55"/>
<polygon fill="#e7298a" stroke="#e7298a" points="1756.89,-71.48 1753.65,-61.39 1749.89,-71.3 1756.89,-71.48"/>
<text text-anchor="middle" x="1776.65" y="-135.69" font-family="Times,serif" font-size="14.00" fill="#e7298a">6379/tcp</text>
</g>
<!-- n1&#45;&gt;n2 -->
<g id="edge35" class="edge">
<title>n1:out&#45;&gt;n2:16379</title>
<path fill="none" stroke="#66a61e" d="M1139.65,-244.39C988.21,-244.39 967.46,-131.63 821.89,-126.57"/>
<polygon fill="#66a61e" stroke="#66a61e" points="821.71,-123.06 811.65,-126.39 821.59,-130.06 821.71,-123.06"/>
<text text-anchor="middle" x="1027.15" y="-188.19" font-family="Times,serif" font-size="14.00" fill="#66a61e">16379/tcp</text>
</g>
<!-- n1&#45;&gt;n4 -->
<g id="edge38" class="edge">
<title>n1:out&#45;&gt;n4:16379</title>
<path fill="none" stroke="#d95f02" d="M1139.65,-244.39C1063.59,-244.39 1045.94,-260.54 970.65,-271.39 939.6,-275.87 853.08,-267.46 830.65,-289.39 822.78,-297.09 823.84,-303.37 824.91,-312.16"/>
<polygon fill="#d95f02" stroke="#d95f02" points="821.44,-312.67 825.65,-322.39 828.42,-312.16 821.44,-312.67"/>
<text text-anchor="middle" x="867.15" y="-293.19" font-family="Times,serif" font-size="14.00" fill="#d95f02">16379/tcp</text>
</g>
<!-- n1&#45;&gt;n7 -->
<g id="edge42" class="edge">
<title>n1:out&#45;&gt;n7:16379</title>
<path fill="none" stroke="#666666" d="M1142.65,-297.89C1127.23,-341.89 1215.79,-285.78 1244.65,-322.39 1259.51,-341.24 1258.96,-357.12 1244.65,-376.39 1222.23,-406.59 1139.63,-371.95 1163.65,-400.89"/>
<text text-anchor="middle" x="1291.15" y="-345.69" font-family="Times,serif" font-size="14.00" fill="#666666">16379/tcp</text>
</g>
<!-- n1&#45;&gt;n8 -->
<g id="edge41" class="edge">
<title>n1:out&#45;&gt;n8:16379</title>
<path fill="none" stroke="#66a61e" d="M1142.65,-297.89C1136.73,-311.39 1057.09,-380.69 1051.65,-394.39 1031.85,-444.25 1030.78,-472.79 1064.65,-514.39 1080.36,-533.68 1117.65,-507.51 1117.65,-532.39"/>
<path fill="none" stroke="#66a61e" d="M1139.65,-244.39C1120.22,-244.39 1142.5,-266.31 1144.14,-285.77"/>
<polygon fill="#66a61e" stroke="#66a61e" points="1140.64,-285.49 1142.65,-295.89 1147.57,-286.5 1140.64,-285.49"/>
<text text-anchor="middle" x="1088.15" y="-398.19" font-family="Times,serif" font-size="14.00" fill="#66a61e">16379/tcp</text>
</g>
<!-- n1&#45;&gt;n3 -->
<g id="edge43" class="edge">
<title>n1:out&#45;&gt;n3:16379</title>
<path fill="none" stroke="#d95f02" d="M1282.65,-271.39C1282.65,-291.57 1352.6,-282.74 1371.65,-289.39 1517.21,-340.23 1735.49,-318.39 1641.65,-481.39 1633.7,-495.2 1624.21,-491.03 1610.65,-499.39 1550.53,-536.47 1542.58,-558.59 1477.65,-586.39 1418.49,-611.73 1400.29,-609.75 1336.65,-619.39 1313.51,-622.9 963.84,-647.64 895.83,-651.01"/>
<polygon fill="#d95f02" stroke="#d95f02" points="895.51,-647.52 885.65,-651.39 895.77,-654.52 895.51,-647.52"/>
<text text-anchor="middle" x="1699.15" y="-450.69" font-family="Times,serif" font-size="14.00" fill="#d95f02">16379/tcp</text>
</g>
<!-- n4&#45;&gt;n6 -->
<g id="edge49" class="edge">
<title>n4:out&#45;&gt;n6:16379</title>
<path fill="none" stroke="#7570b3" d="M504.65,-402.89C498.17,-406.17 496.55,-407.11 489.65,-409.39 428.93,-429.46 376.25,-393.95 352.65,-453.39"/>
<path fill="none" stroke="#7570b3" d="M352.65,-455.39C290.6,-615.16 227.54,-547.26 244.65,-619.39 264.98,-705.06 263.4,-743.31 333.65,-796.39 367.59,-822.03 387.17,-801.34 427.65,-814.39 434.18,-816.5 435.65,-817.56 441.65,-820.89"/>
<path fill="none" stroke="#7570b3" d="M495.65,-349.39C483.64,-349.39 494.54,-364.57 496.65,-376.39 497.62,-381.85 501.93,-386.56 504.95,-390.55"/>
<polygon fill="#7570b3" stroke="#7570b3" points="501.44,-390.79 504.65,-400.89 508.44,-391 501.44,-390.79"/>
<text text-anchor="middle" x="281.15" y="-608.19" font-family="Times,serif" font-size="14.00" fill="#7570b3">16379/tcp</text>
</g>
<!-- n4&#45;&gt;n5 -->
<g id="edge44" class="edge">
<title>n4:out&#45;&gt;n5:16379</title>
<path fill="none" stroke="#a6761d" d="M352.65,-455.39C328.94,-515.77 438.56,-479.88 476.65,-532.39 518.65,-590.29 452.55,-639.37 501.65,-691.39 549.1,-741.67 585.15,-715.07 653.65,-724.39 671.18,-726.77 971.65,-724.7 971.65,-742.39"/>
<text text-anchor="middle" x="528.15" y="-555.69" font-family="Times,serif" font-size="14.00" fill="#a6761d">16379/tcp</text>
</g>
<!-- n4&#45;&gt;n9 -->
<g id="edge45" class="edge">
<title>n4:out&#45;&gt;n9:16379</title>
<path fill="none" stroke="#1b9e77" d="M638.65,-322.39C638.65,-307.99 1142.28,-305.29 1156.65,-304.39 1320.1,-294.21 1364.98,-311.94 1523.65,-271.39 1581.89,-256.51 1591.29,-238.3 1647.65,-217.39 1673.61,-207.76 1872.35,-165.2 1884.65,-140.39"/>
<path fill="none" stroke="#1b9e77" d="M1884.65,-138.39C1909.1,-82.63 1868.63,-27.52 1809.66,-21.87"/>
<polygon fill="#1b9e77" stroke="#1b9e77" points="1809.81,-18.37 1799.65,-21.39 1809.47,-25.36 1809.81,-18.37"/>
<text text-anchor="middle" x="1807.15" y="-188.19" font-family="Times,serif" font-size="14.00" fill="#1b9e77">16379/tcp</text>
</g>
<!-- n4&#45;&gt;n2 -->
<g id="edge50" class="edge">
<title>n4:out&#45;&gt;n2:16379</title>
<path fill="none" stroke="#1b9e77" d="M638.65,-322.39C638.65,-253.3 779.74,-234.59 724.65,-192.89"/>
<text text-anchor="middle" x="773.15" y="-240.69" font-family="Times,serif" font-size="14.00" fill="#1b9e77">16379/tcp</text>
</g>
<!-- n4&#45;&gt;n1 -->
<g id="edge47" class="edge">
<title>n4:out&#45;&gt;n1:16379</title>
<path fill="none" stroke="#d95f02" d="M638.65,-322.39C638.65,-316.06 741.4,-290.39 747.65,-289.39 789.71,-282.66 1484.39,-301.86 1514.15,-271.39 1530.92,-254.22 1530.93,-234.55 1514.15,-217.39 1509.34,-212.47 1489.71,-209.13 1478.19,-210.87"/>
<polygon fill="#d95f02" stroke="#d95f02" points="1476.15,-208.02 1469.65,-216.39 1479.95,-213.9 1476.15,-208.02"/>
<text text-anchor="middle" x="784.15" y="-293.19" font-family="Times,serif" font-size="14.00" fill="#d95f02">16379/tcp</text>
</g>
<!-- n4&#45;&gt;n7 -->
<g id="edge46" class="edge">
<title>n4:out&#45;&gt;n7:16379</title>
<path fill="none" stroke="#d95f02" d="M638.65,-376.39C638.65,-462.54 743.94,-400.7 829.65,-409.39 844.38,-410.89 1323.17,-411.27 1397.89,-423.91"/>
<polygon fill="#d95f02" stroke="#d95f02" points="1397.06,-427.33 1407.65,-427.39 1399.41,-420.73 1397.06,-427.33"/>
<text text-anchor="middle" x="866.15" y="-398.19" font-family="Times,serif" font-size="14.00" fill="#d95f02">16379/tcp</text>
</g>
<!-- n4&#45;&gt;n8 -->
<g id="edge51" class="edge">
<title>n4:out&#45;&gt;n8:16379</title>
<path fill="none" stroke="#66a61e" d="M495.65,-349.39C483.64,-349.39 489.77,-366.55 496.65,-376.39 508.75,-393.71 521.39,-385.7 540.65,-394.39 620.19,-430.27 634.64,-451.59 716.65,-481.39 756.67,-495.93 771.3,-492.68 807.86,-502.97"/>
<polygon fill="#66a61e" stroke="#66a61e" points="807.07,-506.38 817.65,-505.89 809.07,-499.68 807.07,-506.38"/>
<text text-anchor="middle" x="753.15" y="-450.69" font-family="Times,serif" font-size="14.00" fill="#66a61e">16379/tcp</text>
</g>
<!-- n4&#45;&gt;n3 -->
<g id="edge48" class="edge">
<title>n4:out&#45;&gt;n3:16379</title>
<path fill="none" stroke="#d95f02" d="M504.65,-402.89C436.75,-435.27 566.11,-474.09 613.65,-532.39 641.75,-566.85 653.88,-572.13 675.65,-610.89"/>
<text text-anchor="middle" x="632.15" y="-503.19" font-family="Times,serif" font-size="14.00" fill="#d95f02">16379/tcp</text>
</g>
<!-- n7&#45;&gt;n6 -->
<g id="edge58" class="edge">
<title>n7:out&#45;&gt;n6:16379</title>
<path fill="none" stroke="#1b9e77" d="M2057.65,-822.89C2051.81,-828.49 2048.59,-827.83 2040.65,-829.39 1892.56,-858.54 833.58,-861.39 682.65,-861.39"/>
<path fill="none" stroke="#1b9e77" d="M1494.65,-507.89C1565.66,-560.59 1611.46,-536.95 1668.65,-604.39 1695.2,-635.7 1668.21,-665 1699.65,-691.39 1803.23,-778.36 1880.76,-677.92 1999.65,-742.39 2013.48,-749.89 2011.32,-758.63 2023.65,-768.39"/>
<path fill="none" stroke="#1b9e77" d="M2023.65,-770.39C2044.87,-787.18 2077.19,-802.17 2057.65,-820.89"/>
<text text-anchor="middle" x="1736.15" y="-660.69" font-family="Times,serif" font-size="14.00" fill="#1b9e77">16379/tcp</text>
</g>
<!-- n7&#45;&gt;n5 -->
<g id="edge59" class="edge">
<title>n7:out&#45;&gt;n5:16379</title>
<path fill="none" stroke="#1b9e77" d="M1494.65,-507.89C1537.06,-534.75 1477.86,-583.2 1512.65,-619.39 1540.62,-648.48 1567.61,-615.71 1601.65,-637.39 1638.24,-660.69 1699.98,-699.92 1659.65,-715.89"/>
<text text-anchor="middle" x="1549.15" y="-608.19" font-family="Times,serif" font-size="14.00" fill="#1b9e77">16379/tcp</text>
</g>
<!-- n7&#45;&gt;n9 -->
<g id="edge52" class="edge">
<title>n7:out&#45;&gt;n9:16379</title>
<path fill="none" stroke="#a6761d" d="M1220.65,-427.39C1220.65,-391.33 1511.47,-423.5 1544.65,-409.39 1546.62,-408.55 1656.23,-305.99 1657.65,-304.39 1689.6,-268.56 1680.46,-242.04 1721.65,-217.39 1753.08,-198.58 1870.44,-226.65 1884.65,-192.89"/>
<path fill="none" stroke="#a6761d" d="M1884.65,-190.89C1891.92,-169.66 1874.86,-160.59 1884.65,-140.39"/>
<text text-anchor="middle" x="1758.15" y="-240.69" font-family="Times,serif" font-size="14.00" fill="#a6761d">16379/tcp</text>
</g>
<!-- n7&#45;&gt;n2 -->
<g id="edge54" class="edge">
<title>n7:out&#45;&gt;n2:16379</title>
<path fill="none" stroke="#7570b3" d="M1077.65,-454.39C1065.64,-454.39 1071.7,-437.18 1078.65,-427.39 1095.33,-403.9 1162.49,-419.06 1138.65,-402.89"/>
<path fill="none" stroke="#7570b3" d="M1138.65,-400.89C1094.62,-371.03 990.05,-286.79 956.65,-245.39"/>
<text text-anchor="middle" x="1052.15" y="-293.19" font-family="Times,serif" font-size="14.00" fill="#7570b3">16379/tcp</text>
</g>
<!-- n7&#45;&gt;n2 -->
<g id="edge55" class="edge">
<title>n7:out&#45;&gt;n2:6379</title>
<path fill="none" stroke="#e7298a" d="M1580.65,-190.89C1501.24,-168.07 937.65,-154.35 822.18,-153.44"/>
<polygon fill="#e7298a" stroke="#e7298a" points="821.92,-149.94 811.9,-153.39 821.89,-156.94 821.92,-149.94"/>
<path fill="none" stroke="#e7298a" d="M1220.65,-427.39C1220.65,-393.55 1498.52,-430.89 1524.65,-409.39 1563.03,-377.82 1628.41,-206.62 1580.65,-192.89"/>
<text text-anchor="middle" x="1617.65" y="-293.19" font-family="Times,serif" font-size="14.00" fill="#e7298a">6379/tcp</text>
</g>
<!-- n7&#45;&gt;n1 -->
<g id="edge57" class="edge">
<title>n7:out&#45;&gt;n1:16379</title>
<path fill="none" stroke="#666666" d="M1138.65,-400.89C1107.87,-380.01 1138.77,-345.82 1167.65,-322.39 1197.87,-297.87 1488.72,-300.84 1514.15,-271.39 1529.84,-253.23 1530.93,-234.55 1514.15,-217.39 1509.36,-212.5 1489.89,-209.16 1478.35,-210.85"/>
<polygon fill="#666666" stroke="#666666" points="1476.53,-207.86 1469.68,-215.94 1480.07,-213.89 1476.53,-207.86"/>
<text text-anchor="middle" x="1204.15" y="-345.69" font-family="Times,serif" font-size="14.00" fill="#666666">16379/tcp</text>
</g>
<!-- n7&#45;&gt;n4 -->
<g id="edge60" class="edge">
<title>n7:out&#45;&gt;n4:16379</title>
<path fill="none" stroke="#d95f02" d="M1077.65,-454.39C1054.52,-454.39 899.99,-393.7 884.65,-376.39 875.74,-366.33 882.58,-350.07 880.19,-341.72"/>
<polygon fill="#d95f02" stroke="#d95f02" points="881.99,-338.71 871.65,-336.39 878.28,-344.65 881.99,-338.71"/>
<text text-anchor="middle" x="983.15" y="-398.19" font-family="Times,serif" font-size="14.00" fill="#d95f02">16379/tcp</text>
</g>
<!-- n7&#45;&gt;n8 -->
<g id="edge53" class="edge">
<title>n7:out&#45;&gt;n8:16379</title>
<path fill="none" stroke="#a6761d" d="M1220.65,-481.39C1220.65,-516.21 1205.39,-541.3 1173.94,-545.7"/>
<polygon fill="#a6761d" stroke="#a6761d" points="1173.4,-542.23 1163.65,-546.39 1173.86,-549.21 1173.4,-542.23"/>
<text text-anchor="middle" x="1255.15" y="-503.19" font-family="Times,serif" font-size="14.00" fill="#a6761d">16379/tcp</text>
</g>
<!-- n7&#45;&gt;n3 -->
<g id="edge56" class="edge">
<title>n7:out&#45;&gt;n3:16379</title>
<path fill="none" stroke="#d95f02" d="M1494.65,-507.89C1523.48,-531.38 1447.38,-514.74 1414.65,-532.39 1361.31,-561.16 1365.85,-596.71 1309.65,-619.39 1287.75,-628.23 909.27,-651.39 885.65,-651.39"/>
<path fill="none" stroke="#d95f02" d="M1220.65,-481.39C1220.65,-509.57 1433.37,-490.21 1485.18,-502.14"/>
<polygon fill="#d95f02" stroke="#d95f02" points="1484.07,-505.46 1494.65,-505.89 1486.64,-498.95 1484.07,-505.46"/>
<text text-anchor="middle" x="1451.15" y="-555.69" font-family="Times,serif" font-size="14.00" fill="#d95f02">16379/tcp</text>
</g>
<!-- n8&#45;&gt;n6 -->
<g id="edge65" class="edge">
<title>n8:out&#45;&gt;n6:16379</title>
<path fill="none" stroke="#e6ab02" d="M930.65,-586.39C930.65,-635.87 932.64,-660.93 893.65,-691.39 860.23,-717.5 744.55,-698.18 703.65,-709.39 634.61,-728.31 592.32,-745.04 578.49,-810.82"/>
<polygon fill="#e6ab02" stroke="#e6ab02" points="575,-810.43 576.65,-820.89 581.89,-811.68 575,-810.43"/>
<text text-anchor="middle" x="740.15" y="-713.19" font-family="Times,serif" font-size="14.00" fill="#e6ab02">16379/tcp</text>
</g>
<!-- n8&#45;&gt;n5 -->
<g id="edge63" class="edge">
<title>n8:out&#45;&gt;n5:16379</title>
<path fill="none" stroke="#e6ab02" d="M1659.65,-717.89C1626.43,-731.04 1053.38,-756.39 1017.65,-756.39"/>
<path fill="none" stroke="#e6ab02" d="M930.65,-586.39C930.65,-607.47 1288.87,-600.86 1309.65,-604.39 1360.39,-613.01 1372.79,-618.48 1420.65,-637.39 1470.56,-657.11 1477.78,-674.29 1528.65,-691.39 1580.63,-708.86 1694.7,-693.64 1668.71,-711.04"/>
<polygon fill="#e6ab02" stroke="#e6ab02" points="1666.82,-708.08 1659.65,-715.89 1670.12,-714.26 1666.82,-708.08"/>
<text text-anchor="middle" x="1565.15" y="-660.69" font-family="Times,serif" font-size="14.00" fill="#e6ab02">16379/tcp</text>
</g>
<!-- n8&#45;&gt;n9 -->
<g id="edge69" class="edge">
<title>n8:out&#45;&gt;n9:16379</title>
<path fill="none" stroke="#e6ab02" d="M930.65,-532.39C930.65,-500.43 1480.22,-533.75 1505.65,-514.39 1537.87,-489.87 1506.81,-458.55 1532.65,-427.39 1543.57,-414.23 1551.69,-417.68 1566.65,-409.39 1670.27,-352 1699.22,-341.55 1794.65,-271.39 1816.03,-255.67 1876.05,-218 1884.65,-192.89"/>
<text text-anchor="middle" x="1805.15" y="-293.19" font-family="Times,serif" font-size="14.00" fill="#e6ab02">16379/tcp</text>
</g>
<!-- n8&#45;&gt;n2 -->
<g id="edge68" class="edge">
<title>n8:out&#45;&gt;n2:16379</title>
<path fill="none" stroke="#e7298a" d="M971.65,-505.89C971.34,-489.69 992.09,-496.21 998.65,-481.39 1014.31,-446.04 1018.98,-427.28 998.65,-394.39 989.25,-379.17 976.49,-387.73 962.65,-376.39 931.3,-350.69 919.81,-342.74 906.65,-304.39 904.49,-298.08 903.91,-295.47 906.65,-289.39 918.85,-262.42 974.57,-268.95 956.65,-245.39"/>
<path fill="none" stroke="#e7298a" d="M956.65,-243.39C887.69,-163.51 810.02,-254.93 724.65,-192.89"/>
<text text-anchor="middle" x="999.15" y="-345.69" font-family="Times,serif" font-size="14.00" fill="#e7298a">16379/tcp</text>
</g>
<!-- n8&#45;&gt;n1 -->
<g id="edge64" class="edge">
<title>n8:out&#45;&gt;n1:16379</title>
<path fill="none" stroke="#66a61e" d="M1512.65,-295.89C1504.25,-288.9 1514.07,-282.3 1514.65,-271.39 1515.27,-259.69 1523.23,-246.04 1523.5,-238.09"/>
<polygon fill="#66a61e" stroke="#66a61e" points="1525.83,-235.49 1516.06,-231.39 1521.15,-240.69 1525.83,-235.49"/>
<path fill="none" stroke="#66a61e" d="M930.65,-532.39C930.65,-512.09 1275.5,-516.88 1295.65,-514.39 1370.31,-505.18 1406.51,-532.55 1461.65,-481.39 1492.68,-452.6 1545.19,-324.95 1512.65,-297.89"/>
<text text-anchor="middle" x="1545.15" y="-398.19" font-family="Times,serif" font-size="14.00" fill="#66a61e">16379/tcp</text>
</g>
<!-- n8&#45;&gt;n4 -->
<g id="edge66" class="edge">
<title>n8:out&#45;&gt;n4:6379</title>
<path fill="none" stroke="#e6ab02" d="M930.65,-532.39C930.65,-511.16 973.46,-529.04 971.65,-507.89"/>
<path fill="none" stroke="#e6ab02" d="M971.65,-505.89C969.97,-486.24 947.92,-495.98 934.65,-481.39 926.13,-472.03 897.22,-393.04 879.64,-369.8"/>
<polygon fill="#e6ab02" stroke="#e6ab02" points="881.64,-366.92 871.65,-363.39 877.26,-372.38 881.64,-366.92"/>
<text text-anchor="middle" x="966.65" y="-450.69" font-family="Times,serif" font-size="14.00" fill="#e6ab02">6379/tcp</text>
</g>
<!-- n8&#45;&gt;n4 -->
<g id="edge67" class="edge">
<title>n8:out&#45;&gt;n4:16379</title>
<path fill="none" stroke="#66a61e" d="M787.65,-559.39C775.64,-559.39 786.11,-544.13 788.65,-532.39 799.3,-483.1 806.7,-471.21 831.65,-427.39 845.71,-402.71 861.13,-403.32 870.15,-376.39 877.78,-353.63 886.93,-339.55 870.15,-322.39 865.34,-317.47 845.71,-314.13 834.19,-315.87"/>
<polygon fill="#66a61e" stroke="#66a61e" points="832.15,-313.02 825.65,-321.39 835.95,-318.9 832.15,-313.02"/>
<text text-anchor="middle" x="868.15" y="-450.69" font-family="Times,serif" font-size="14.00" fill="#66a61e">16379/tcp</text>
</g>
<!-- n8&#45;&gt;n7 -->
<g id="edge61" class="edge">
<title>n8:out&#45;&gt;n7:16379</title>
<path fill="none" stroke="#a6761d" d="M930.65,-532.39C930.65,-517.37 1049.84,-516.9 1064.65,-514.39 1097.31,-508.85 1104.81,-503.68 1137.65,-499.39 1172.36,-494.86 1428.12,-506.84 1452.15,-481.39 1468.63,-463.94 1468.93,-444.55 1452.15,-427.39 1447.34,-422.47 1427.71,-419.13 1416.19,-420.87"/>
<polygon fill="#a6761d" stroke="#a6761d" points="1414.15,-418.02 1407.65,-426.39 1417.95,-423.9 1414.15,-418.02"/>
<text text-anchor="middle" x="1174.15" y="-503.19" font-family="Times,serif" font-size="14.00" fill="#a6761d">16379/tcp</text>
</g>
<!-- n8&#45;&gt;n3 -->
<g id="edge62" class="edge">
<title>n8:out&#45;&gt;n3:16379</title>
<path fill="none" stroke="#1b9e77" d="M787.65,-559.39C744.39,-559.39 722.48,-588.82 747.65,-619.39 771.44,-648.29 826.75,-606.16 837.73,-627.52"/>
<polygon fill="#1b9e77" stroke="#1b9e77" points="834.31,-628.24 839.65,-637.39 841.18,-626.91 834.31,-628.24"/>
<text text-anchor="middle" x="784.15" y="-608.19" font-family="Times,serif" font-size="14.00" fill="#1b9e77">16379/tcp</text>
</g>
<!-- n3&#45;&gt;n6 -->
<g id="edge73" class="edge">
<title>n3:out&#45;&gt;n6:16379</title>
<path fill="none" stroke="#7570b3" d="M576.65,-822.89C572.21,-851.35 636.65,-818.59 636.65,-847.39"/>
<path fill="none" stroke="#7570b3" d="M509.65,-664.39C450.32,-664.39 453.83,-749.09 489.65,-796.39 511.25,-824.91 567.13,-790.42 575.76,-810.72"/>
<polygon fill="#7570b3" stroke="#7570b3" points="572.29,-811.23 576.65,-820.89 579.26,-810.62 572.29,-811.23"/>
<text text-anchor="middle" x="526.15" y="-765.69" font-family="Times,serif" font-size="14.00" fill="#7570b3">16379/tcp</text>
</g>
<!-- n3&#45;&gt;n5 -->
<g id="edge71" class="edge">
<title>n3:out&#45;&gt;n5:16379</title>
<path fill="none" stroke="#a6761d" d="M652.65,-691.39C652.65,-724.78 924.26,-691.82 952.65,-709.39 963.78,-716.28 969.06,-722.13 970.88,-732.26"/>
<polygon fill="#a6761d" stroke="#a6761d" points="967.4,-732.68 971.65,-742.39 974.38,-732.15 967.4,-732.68"/>
<text text-anchor="middle" x="1004.15" y="-713.19" font-family="Times,serif" font-size="14.00" fill="#a6761d">16379/tcp</text>
</g>
<!-- n3&#45;&gt;n9 -->
<g id="edge75" class="edge">
<title>n3:out&#45;&gt;n9:16379</title>
<path fill="none" stroke="#1b9e77" d="M652.65,-637.39C652.65,-616.75 1375.18,-622.04 1395.65,-619.39 1458.62,-611.24 1476.11,-610.99 1534.65,-586.39 1601.49,-558.3 1606.23,-528.46 1672.65,-499.39 1700.9,-487.03 1715.28,-500.28 1739.65,-481.39 1853.06,-393.46 1842.61,-330.1 1884.65,-192.89"/>
<text text-anchor="middle" x="1886.15" y="-345.69" font-family="Times,serif" font-size="14.00" fill="#1b9e77">16379/tcp</text>
</g>
<!-- n3&#45;&gt;n2 -->
<g id="edge77" class="edge">
<title>n3:out&#45;&gt;n2:16379</title>
<path fill="none" stroke="#1b9e77" d="M724.65,-190.89C692.67,-167.65 786.36,-197.96 810.15,-166.39 824.6,-147.22 826.93,-129.55 810.15,-112.39 805.36,-107.5 785.89,-104.16 774.35,-105.85"/>
<polygon fill="#1b9e77" stroke="#1b9e77" points="772.53,-102.86 765.68,-110.94 776.07,-108.89 772.53,-102.86"/>
<path fill="none" stroke="#1b9e77" d="M509.65,-664.39C447.89,-664.39 435.95,-632.31 394.65,-586.39 344.56,-530.68 297.7,-490.13 338.65,-427.39 346.35,-415.6 444.05,-385.66 454.65,-376.39 475.83,-357.88 465.16,-339.28 487.65,-322.39 511.96,-304.13 526.01,-317.05 553.65,-304.39 611.28,-278 612.44,-250.23 666.65,-217.39 690.59,-202.89 747.29,-209.34 724.65,-192.89"/>
<text text-anchor="middle" x="449.15" y="-398.19" font-family="Times,serif" font-size="14.00" fill="#1b9e77">16379/tcp</text>
</g>
<!-- n3&#45;&gt;n1 -->
<g id="edge74" class="edge">
<title>n3:out&#45;&gt;n1:16379</title>
<path fill="none" stroke="#d95f02" d="M1295.65,-610.89C1311.36,-605.23 1316.18,-607.1 1332.65,-604.39 1384.56,-595.84 1406.91,-617.07 1449.65,-586.39 1471.61,-570.63 1459,-551.96 1477.65,-532.39 1488.64,-520.86 1497.13,-525.39 1508.65,-514.39 1541.9,-482.63 1534.43,-462.05 1564.65,-427.39 1572.73,-418.12 1580.51,-420.56 1585.65,-409.39 1610.4,-355.58 1560.52,-332.77 1512.65,-297.89"/>
<text text-anchor="middle" x="1601.15" y="-450.69" font-family="Times,serif" font-size="14.00" fill="#d95f02">16379/tcp</text>
</g>
<!-- n3&#45;&gt;n4 -->
<g id="edge76" class="edge">
<title>n3:out&#45;&gt;n4:6379</title>
<path fill="none" stroke="#a6761d" d="M652.65,-637.39C652.65,-619.1 679.95,-634.89 689.65,-619.39 712.39,-583.04 645.51,-462.12 670.65,-427.39 689.75,-401 799.65,-410.13 821.77,-385.96"/>
<polygon fill="#a6761d" stroke="#a6761d" points="825.14,-386.97 825.65,-376.39 818.65,-384.34 825.14,-386.97"/>
<text text-anchor="middle" x="709.65" y="-503.19" font-family="Times,serif" font-size="14.00" fill="#a6761d">6379/tcp</text>
</g>
<!-- n3&#45;&gt;n4 -->
<g id="edge78" class="edge">
<title>n3:out&#45;&gt;n4:16379</title>
<path fill="none" stroke="#d95f02" d="M652.65,-637.39C652.65,-579.52 623.84,-564.43 575.65,-532.39 545.33,-512.23 479.2,-528.82 500.65,-499.39 516.05,-478.26 532.62,-491.68 556.65,-481.39 565.95,-477.41 707.01,-397.45 716.65,-394.39 749.39,-384 847.32,-402.05 870.15,-376.39 886.1,-358.46 886.93,-339.55 870.15,-322.39 865.34,-317.47 845.71,-314.13 834.19,-315.87"/>
<polygon fill="#d95f02" stroke="#d95f02" points="832.15,-313.02 825.65,-321.39 835.95,-318.9 832.15,-313.02"/>
<text text-anchor="middle" x="537.15" y="-503.19" font-family="Times,serif" font-size="14.00" fill="#d95f02">16379/tcp</text>
</g>
<!-- n3&#45;&gt;n7 -->
<g id="edge70" class="edge">
<title>n3:out&#45;&gt;n7:16379</title>
<path fill="none" stroke="#d95f02" d="M652.65,-637.39C652.65,-624.08 1118.35,-619.9 1131.65,-619.39 1204.54,-616.58 1228.21,-640.7 1295.65,-612.89"/>
<path fill="none" stroke="#d95f02" d="M1295.65,-610.89C1307.67,-605.93 1283.36,-598.86 1279.65,-586.39 1272.81,-563.39 1265.29,-551.62 1279.65,-532.39 1327.5,-468.34 1404.3,-545.44 1452.15,-481.39 1466.52,-462.16 1468.93,-444.55 1452.15,-427.39 1447.34,-422.47 1427.71,-419.13 1416.19,-420.87"/>
<polygon fill="#d95f02" stroke="#d95f02" points="1414.15,-418.02 1407.65,-426.39 1417.95,-423.9 1414.15,-418.02"/>
<text text-anchor="middle" x="1316.15" y="-555.69" font-family="Times,serif" font-size="14.00" fill="#d95f02">16379/tcp</text>
</g>
<!-- n3&#45;&gt;n8 -->
<g id="edge72" class="edge">
<title>n3:out&#45;&gt;n8:16379</title>
<path fill="none" stroke="#1b9e77" d="M652.65,-637.39C652.65,-618.62 802.97,-625.69 820.65,-619.39 832.15,-615.29 832.06,-608.2 843.65,-604.39 877.33,-593.34 1137.81,-612.15 1162.15,-586.39 1178.64,-568.95 1178.93,-549.55 1162.15,-532.39 1157.34,-527.47 1137.71,-524.13 1126.19,-525.87"/>
<polygon fill="#1b9e77" stroke="#1b9e77" points="1124.15,-523.02 1117.65,-531.39 1127.95,-528.9 1124.15,-523.02"/>
<text text-anchor="middle" x="880.15" y="-608.19" font-family="Times,serif" font-size="14.00" fill="#1b9e77">16379/tcp</text>
</g>
</g>
</svg>
